<mxfile host="app.diagrams.net" agent="Mozilla/5.0 (Windows NT 10.0; Win64; x64) AppleWebKit/537.36 (KHTML, like Gecko) Chrome/133.0.0.0 Safari/537.36" version="26.0.16">
  <diagram id="R2lEEEUBdFMjLlhIrx00" name="Page-1">
    <mxGraphModel dx="1468" dy="689" grid="1" gridSize="10" guides="1" tooltips="1" connect="1" arrows="1" fold="1" page="1" pageScale="1" pageWidth="850" pageHeight="1100" math="0" shadow="0" extFonts="Permanent Marker^https://fonts.googleapis.com/css?family=Permanent+Marker">
      <root>
        <mxCell id="0" />
        <mxCell id="1" parent="0" />
        <mxCell id="NeTO1dt7-RtWeZAmDibY-6" value="&lt;span style=&quot;text-wrap-mode: nowrap;&quot;&gt;Malade&lt;/span&gt;" style="swimlane;whiteSpace=wrap;html=1;" parent="1" vertex="1">
          <mxGeometry x="90" y="100" width="160" height="220" as="geometry" />
        </mxCell>
        <mxCell id="NeTO1dt7-RtWeZAmDibY-3" value="N°patient" style="shape=partialRectangle;overflow=hidden;connectable=0;fillColor=none;top=0;left=0;bottom=0;right=0;align=left;spacingLeft=6;fontStyle=4" parent="NeTO1dt7-RtWeZAmDibY-6" vertex="1">
          <mxGeometry y="40" width="230" height="30" as="geometry">
            <mxRectangle width="230" height="30" as="alternateBounds" />
          </mxGeometry>
        </mxCell>
        <mxCell id="NeTO1dt7-RtWeZAmDibY-7" value="Adresse" style="shape=partialRectangle;overflow=hidden;connectable=0;fillColor=none;top=0;left=0;bottom=0;right=0;align=left;spacingLeft=6;" parent="NeTO1dt7-RtWeZAmDibY-6" vertex="1">
          <mxGeometry y="150" width="230" height="30" as="geometry">
            <mxRectangle width="230" height="30" as="alternateBounds" />
          </mxGeometry>
        </mxCell>
        <mxCell id="NeTO1dt7-RtWeZAmDibY-8" value="Nom" style="shape=partialRectangle;overflow=hidden;connectable=0;fillColor=none;top=0;left=0;bottom=0;right=0;align=left;spacingLeft=6;" parent="NeTO1dt7-RtWeZAmDibY-6" vertex="1">
          <mxGeometry y="70" width="230" height="30" as="geometry">
            <mxRectangle width="230" height="30" as="alternateBounds" />
          </mxGeometry>
        </mxCell>
        <mxCell id="NeTO1dt7-RtWeZAmDibY-13" value="Prénom" style="shape=partialRectangle;overflow=hidden;connectable=0;fillColor=none;top=0;left=0;bottom=0;right=0;align=left;spacingLeft=6;" parent="NeTO1dt7-RtWeZAmDibY-6" vertex="1">
          <mxGeometry y="110" width="230" height="30" as="geometry">
            <mxRectangle width="230" height="30" as="alternateBounds" />
          </mxGeometry>
        </mxCell>
        <mxCell id="NeTO1dt7-RtWeZAmDibY-14" value="Tel" style="shape=partialRectangle;overflow=hidden;connectable=0;fillColor=none;top=0;left=0;bottom=0;right=0;align=left;spacingLeft=6;" parent="NeTO1dt7-RtWeZAmDibY-6" vertex="1">
          <mxGeometry y="180" width="230" height="30" as="geometry">
            <mxRectangle width="230" height="30" as="alternateBounds" />
          </mxGeometry>
        </mxCell>
        <mxCell id="NeTO1dt7-RtWeZAmDibY-15" value="&lt;span style=&quot;text-wrap-mode: nowrap;&quot;&gt;Mutuelle&lt;/span&gt;" style="swimlane;whiteSpace=wrap;html=1;startSize=23;" parent="1" vertex="1">
          <mxGeometry x="540" y="100" width="160" height="110" as="geometry" />
        </mxCell>
        <mxCell id="NeTO1dt7-RtWeZAmDibY-16" value="N°mutuelle" style="shape=partialRectangle;overflow=hidden;connectable=0;fillColor=none;top=0;left=0;bottom=0;right=0;align=left;spacingLeft=6;" parent="NeTO1dt7-RtWeZAmDibY-15" vertex="1">
          <mxGeometry y="40" width="230" height="30" as="geometry">
            <mxRectangle width="230" height="30" as="alternateBounds" />
          </mxGeometry>
        </mxCell>
        <mxCell id="NeTO1dt7-RtWeZAmDibY-18" value="Adresse mutuelle" style="shape=partialRectangle;overflow=hidden;connectable=0;fillColor=none;top=0;left=0;bottom=0;right=0;align=left;spacingLeft=6;" parent="NeTO1dt7-RtWeZAmDibY-15" vertex="1">
          <mxGeometry y="70" width="230" height="30" as="geometry">
            <mxRectangle width="230" height="30" as="alternateBounds" />
          </mxGeometry>
        </mxCell>
        <mxCell id="NeTO1dt7-RtWeZAmDibY-21" value="&lt;span style=&quot;text-wrap-mode: nowrap;&quot;&gt;Maladie&lt;/span&gt;" style="swimlane;whiteSpace=wrap;html=1;" parent="1" vertex="1">
          <mxGeometry x="590" y="470" width="160" height="110" as="geometry" />
        </mxCell>
        <mxCell id="NeTO1dt7-RtWeZAmDibY-22" value="Code maladie" style="shape=partialRectangle;overflow=hidden;connectable=0;fillColor=none;top=0;left=0;bottom=0;right=0;align=left;spacingLeft=6;" parent="NeTO1dt7-RtWeZAmDibY-21" vertex="1">
          <mxGeometry y="40" width="230" height="30" as="geometry">
            <mxRectangle width="230" height="30" as="alternateBounds" />
          </mxGeometry>
        </mxCell>
        <mxCell id="NeTO1dt7-RtWeZAmDibY-24" value="Nom maladie" style="shape=partialRectangle;overflow=hidden;connectable=0;fillColor=none;top=0;left=0;bottom=0;right=0;align=left;spacingLeft=6;" parent="NeTO1dt7-RtWeZAmDibY-21" vertex="1">
          <mxGeometry x="1" y="70" width="230" height="30" as="geometry">
            <mxRectangle width="230" height="30" as="alternateBounds" />
          </mxGeometry>
        </mxCell>
        <mxCell id="NeTO1dt7-RtWeZAmDibY-27" value="&lt;span style=&quot;text-wrap-mode: nowrap;&quot;&gt;Médecin&lt;/span&gt;" style="swimlane;whiteSpace=wrap;html=1;" parent="1" vertex="1">
          <mxGeometry x="100" y="470" width="160" height="110" as="geometry" />
        </mxCell>
        <mxCell id="NeTO1dt7-RtWeZAmDibY-28" value="N°médecin" style="shape=partialRectangle;overflow=hidden;connectable=0;fillColor=none;top=0;left=0;bottom=0;right=0;align=left;spacingLeft=6;" parent="NeTO1dt7-RtWeZAmDibY-27" vertex="1">
          <mxGeometry y="40" width="140" height="30" as="geometry">
            <mxRectangle width="230" height="30" as="alternateBounds" />
          </mxGeometry>
        </mxCell>
        <mxCell id="NeTO1dt7-RtWeZAmDibY-30" value="Nom médecin" style="shape=partialRectangle;overflow=hidden;connectable=0;fillColor=none;top=0;left=0;bottom=0;right=0;align=left;spacingLeft=6;" parent="NeTO1dt7-RtWeZAmDibY-27" vertex="1">
          <mxGeometry y="70" width="230" height="30" as="geometry">
            <mxRectangle width="230" height="30" as="alternateBounds" />
          </mxGeometry>
        </mxCell>
        <mxCell id="NeTO1dt7-RtWeZAmDibY-33" value="&lt;div&gt;Hospitaliser&lt;/div&gt;&lt;div&gt;&lt;br&gt;&lt;/div&gt;&lt;div&gt;Date début&lt;/div&gt;&lt;div&gt;Date fin&lt;/div&gt;" style="ellipse;whiteSpace=wrap;html=1;" parent="1" vertex="1">
          <mxGeometry x="370" y="470" width="120" height="80" as="geometry" />
        </mxCell>
        <mxCell id="NeTO1dt7-RtWeZAmDibY-34" value="Disposer&lt;div&gt;&lt;br&gt;&lt;div&gt;&lt;div&gt;Date début&lt;/div&gt;&lt;div&gt;Date fin&lt;/div&gt;&lt;/div&gt;&lt;/div&gt;" style="ellipse;whiteSpace=wrap;html=1;" parent="1" vertex="1">
          <mxGeometry x="340" y="100" width="120" height="80" as="geometry" />
        </mxCell>
        <mxCell id="NeTO1dt7-RtWeZAmDibY-35" value="" style="endArrow=none;html=1;rounded=0;entryX=0;entryY=0.25;entryDx=0;entryDy=0;exitX=1;exitY=0.25;exitDx=0;exitDy=0;" parent="1" source="NeTO1dt7-RtWeZAmDibY-27" target="NeTO1dt7-RtWeZAmDibY-21" edge="1">
          <mxGeometry width="50" height="50" relative="1" as="geometry">
            <mxPoint x="300" y="490" as="sourcePoint" />
            <mxPoint x="350" y="440" as="targetPoint" />
          </mxGeometry>
        </mxCell>
        <mxCell id="NeTO1dt7-RtWeZAmDibY-36" value="" style="endArrow=none;html=1;rounded=0;" parent="1" edge="1">
          <mxGeometry width="50" height="50" relative="1" as="geometry">
            <mxPoint x="250" y="130" as="sourcePoint" />
            <mxPoint x="540" y="130" as="targetPoint" />
          </mxGeometry>
        </mxCell>
        <mxCell id="NeTO1dt7-RtWeZAmDibY-38" value="1,n" style="text;html=1;align=center;verticalAlign=middle;resizable=0;points=[];autosize=1;strokeColor=none;fillColor=none;" parent="1" vertex="1">
          <mxGeometry x="270" y="508" width="40" height="30" as="geometry" />
        </mxCell>
        <mxCell id="NeTO1dt7-RtWeZAmDibY-39" value="1,n" style="text;html=1;align=center;verticalAlign=middle;resizable=0;points=[];autosize=1;strokeColor=none;fillColor=none;" parent="1" vertex="1">
          <mxGeometry x="490" y="100" width="40" height="30" as="geometry" />
        </mxCell>
        <mxCell id="NeTO1dt7-RtWeZAmDibY-40" value="" style="endArrow=none;html=1;rounded=0;entryX=0.366;entryY=0.051;entryDx=0;entryDy=0;entryPerimeter=0;" parent="1" target="NeTO1dt7-RtWeZAmDibY-33" edge="1">
          <mxGeometry width="50" height="50" relative="1" as="geometry">
            <mxPoint x="250" y="260" as="sourcePoint" />
            <mxPoint x="410" y="460" as="targetPoint" />
          </mxGeometry>
        </mxCell>
        <mxCell id="NeTO1dt7-RtWeZAmDibY-41" value="0,n" style="text;html=1;align=center;verticalAlign=middle;resizable=0;points=[];autosize=1;strokeColor=none;fillColor=none;" parent="1" vertex="1">
          <mxGeometry x="540" y="508" width="40" height="30" as="geometry" />
        </mxCell>
        <mxCell id="NeTO1dt7-RtWeZAmDibY-42" value="0,1" style="text;html=1;align=center;verticalAlign=middle;resizable=0;points=[];autosize=1;strokeColor=none;fillColor=none;" parent="1" vertex="1">
          <mxGeometry x="250" y="100" width="40" height="30" as="geometry" />
        </mxCell>
        <mxCell id="NeTO1dt7-RtWeZAmDibY-43" value="" style="endArrow=block;html=1;rounded=0;endFill=1;" parent="1" edge="1">
          <mxGeometry width="50" height="50" relative="1" as="geometry">
            <mxPoint x="480" y="139.85" as="sourcePoint" />
            <mxPoint x="540" y="139.85" as="targetPoint" />
            <Array as="points">
              <mxPoint x="510" y="140" />
            </Array>
          </mxGeometry>
        </mxCell>
        <mxCell id="NeTO1dt7-RtWeZAmDibY-46" value="Malade(&lt;u&gt;N°patient&lt;/u&gt;,Nom, Prénom, Adresse,Tel, Num_mutuelle)" style="text;html=1;align=center;verticalAlign=middle;resizable=0;points=[];autosize=1;strokeColor=none;fillColor=none;" parent="1" vertex="1">
          <mxGeometry x="300" y="240" width="350" height="30" as="geometry" />
        </mxCell>
        <mxCell id="NeTO1dt7-RtWeZAmDibY-47" value="" style="endArrow=none;dashed=1;html=1;rounded=0;exitX=0.739;exitY=0.923;exitDx=0;exitDy=0;exitPerimeter=0;entryX=0.948;entryY=0.896;entryDx=0;entryDy=0;entryPerimeter=0;" parent="1" source="NeTO1dt7-RtWeZAmDibY-46" target="NeTO1dt7-RtWeZAmDibY-46" edge="1">
          <mxGeometry width="50" height="50" relative="1" as="geometry">
            <mxPoint x="490" y="330" as="sourcePoint" />
            <mxPoint x="536" y="290" as="targetPoint" />
          </mxGeometry>
        </mxCell>
        <mxCell id="NeTO1dt7-RtWeZAmDibY-48" value="Mutuelle(&lt;u&gt;Num_mutuelle&lt;/u&gt;, Adresse)" style="text;html=1;align=center;verticalAlign=middle;resizable=0;points=[];autosize=1;strokeColor=none;fillColor=none;" parent="1" vertex="1">
          <mxGeometry x="310" y="270" width="200" height="30" as="geometry" />
        </mxCell>
        <mxCell id="NeTO1dt7-RtWeZAmDibY-49" value="Medecin(&lt;u&gt;Num_medecin&lt;/u&gt;, Nom)" style="text;html=1;align=center;verticalAlign=middle;resizable=0;points=[];autosize=1;strokeColor=none;fillColor=none;" parent="1" vertex="1">
          <mxGeometry x="330" y="300" width="190" height="30" as="geometry" />
        </mxCell>
        <mxCell id="NeTO1dt7-RtWeZAmDibY-50" value="Maladie(&lt;u&gt;Code_maladie&lt;/u&gt;, Nom)" style="text;html=1;align=center;verticalAlign=middle;resizable=0;points=[];autosize=1;strokeColor=none;fillColor=none;" parent="1" vertex="1">
          <mxGeometry x="345" y="330" width="180" height="30" as="geometry" />
        </mxCell>
        <mxCell id="NeTO1dt7-RtWeZAmDibY-51" value="Malade_Médecin_Maladie(&lt;u&gt;Num_patient, Num_médecin, code_maladie&lt;/u&gt;, date_début, date_fin)" style="text;html=1;align=center;verticalAlign=middle;resizable=0;points=[];autosize=1;strokeColor=none;fillColor=none;" parent="1" vertex="1">
          <mxGeometry x="360" y="360" width="520" height="30" as="geometry" />
        </mxCell>
        <mxCell id="dEcd-b_ub2l0deUxEuGr-672" value="User" style="shape=table;startSize=30;container=1;collapsible=1;childLayout=tableLayout;fixedRows=1;rowLines=0;fontStyle=1;align=center;resizeLast=1;html=1;fillColor=#fff2cc;strokeColor=#d6b656;" parent="1" vertex="1">
          <mxGeometry x="1580" y="260" width="220" height="330" as="geometry" />
        </mxCell>
        <mxCell id="dEcd-b_ub2l0deUxEuGr-673" value="" style="shape=tableRow;horizontal=0;startSize=0;swimlaneHead=0;swimlaneBody=0;fillColor=none;collapsible=0;dropTarget=0;points=[[0,0.5],[1,0.5]];portConstraint=eastwest;top=0;left=0;right=0;bottom=1;" parent="dEcd-b_ub2l0deUxEuGr-672" vertex="1">
          <mxGeometry y="30" width="220" height="30" as="geometry" />
        </mxCell>
        <mxCell id="dEcd-b_ub2l0deUxEuGr-674" value="PK" style="shape=partialRectangle;connectable=0;fillColor=none;top=0;left=0;bottom=0;right=0;fontStyle=1;overflow=hidden;whiteSpace=wrap;html=1;" parent="dEcd-b_ub2l0deUxEuGr-673" vertex="1">
          <mxGeometry width="30" height="30" as="geometry">
            <mxRectangle width="30" height="30" as="alternateBounds" />
          </mxGeometry>
        </mxCell>
        <mxCell id="dEcd-b_ub2l0deUxEuGr-675" value="user_id: INT" style="shape=partialRectangle;connectable=0;fillColor=none;top=0;left=0;bottom=0;right=0;align=left;spacingLeft=6;fontStyle=5;overflow=hidden;whiteSpace=wrap;html=1;" parent="dEcd-b_ub2l0deUxEuGr-673" vertex="1">
          <mxGeometry x="30" width="190" height="30" as="geometry">
            <mxRectangle width="190" height="30" as="alternateBounds" />
          </mxGeometry>
        </mxCell>
        <mxCell id="dEcd-b_ub2l0deUxEuGr-676" value="" style="shape=tableRow;horizontal=0;startSize=0;swimlaneHead=0;swimlaneBody=0;fillColor=none;collapsible=0;dropTarget=0;points=[[0,0.5],[1,0.5]];portConstraint=eastwest;top=0;left=0;right=0;bottom=0;" parent="dEcd-b_ub2l0deUxEuGr-672" vertex="1">
          <mxGeometry y="60" width="220" height="30" as="geometry" />
        </mxCell>
        <mxCell id="dEcd-b_ub2l0deUxEuGr-677" value="" style="shape=partialRectangle;connectable=0;fillColor=none;top=0;left=0;bottom=0;right=0;editable=1;overflow=hidden;whiteSpace=wrap;html=1;" parent="dEcd-b_ub2l0deUxEuGr-676" vertex="1">
          <mxGeometry width="30" height="30" as="geometry">
            <mxRectangle width="30" height="30" as="alternateBounds" />
          </mxGeometry>
        </mxCell>
        <mxCell id="dEcd-b_ub2l0deUxEuGr-678" value="firstname : STRING" style="shape=partialRectangle;connectable=0;fillColor=none;top=0;left=0;bottom=0;right=0;align=left;spacingLeft=6;overflow=hidden;whiteSpace=wrap;html=1;" parent="dEcd-b_ub2l0deUxEuGr-676" vertex="1">
          <mxGeometry x="30" width="190" height="30" as="geometry">
            <mxRectangle width="190" height="30" as="alternateBounds" />
          </mxGeometry>
        </mxCell>
        <mxCell id="dEcd-b_ub2l0deUxEuGr-679" value="" style="shape=tableRow;horizontal=0;startSize=0;swimlaneHead=0;swimlaneBody=0;fillColor=none;collapsible=0;dropTarget=0;points=[[0,0.5],[1,0.5]];portConstraint=eastwest;top=0;left=0;right=0;bottom=0;" parent="dEcd-b_ub2l0deUxEuGr-672" vertex="1">
          <mxGeometry y="90" width="220" height="30" as="geometry" />
        </mxCell>
        <mxCell id="dEcd-b_ub2l0deUxEuGr-680" value="" style="shape=partialRectangle;connectable=0;fillColor=none;top=0;left=0;bottom=0;right=0;editable=1;overflow=hidden;whiteSpace=wrap;html=1;" parent="dEcd-b_ub2l0deUxEuGr-679" vertex="1">
          <mxGeometry width="30" height="30" as="geometry">
            <mxRectangle width="30" height="30" as="alternateBounds" />
          </mxGeometry>
        </mxCell>
        <mxCell id="dEcd-b_ub2l0deUxEuGr-681" value="lastname: STRING" style="shape=partialRectangle;connectable=0;fillColor=none;top=0;left=0;bottom=0;right=0;align=left;spacingLeft=6;overflow=hidden;whiteSpace=wrap;html=1;" parent="dEcd-b_ub2l0deUxEuGr-679" vertex="1">
          <mxGeometry x="30" width="190" height="30" as="geometry">
            <mxRectangle width="190" height="30" as="alternateBounds" />
          </mxGeometry>
        </mxCell>
        <mxCell id="dEcd-b_ub2l0deUxEuGr-682" value="" style="shape=tableRow;horizontal=0;startSize=0;swimlaneHead=0;swimlaneBody=0;fillColor=none;collapsible=0;dropTarget=0;points=[[0,0.5],[1,0.5]];portConstraint=eastwest;top=0;left=0;right=0;bottom=0;" parent="dEcd-b_ub2l0deUxEuGr-672" vertex="1">
          <mxGeometry y="120" width="220" height="30" as="geometry" />
        </mxCell>
        <mxCell id="dEcd-b_ub2l0deUxEuGr-683" value="" style="shape=partialRectangle;connectable=0;fillColor=none;top=0;left=0;bottom=0;right=0;editable=1;overflow=hidden;whiteSpace=wrap;html=1;" parent="dEcd-b_ub2l0deUxEuGr-682" vertex="1">
          <mxGeometry width="30" height="30" as="geometry">
            <mxRectangle width="30" height="30" as="alternateBounds" />
          </mxGeometry>
        </mxCell>
        <mxCell id="dEcd-b_ub2l0deUxEuGr-684" value="email: STRING {Not Null, Unique}" style="shape=partialRectangle;connectable=0;fillColor=none;top=0;left=0;bottom=0;right=0;align=left;spacingLeft=6;overflow=hidden;whiteSpace=wrap;html=1;" parent="dEcd-b_ub2l0deUxEuGr-682" vertex="1">
          <mxGeometry x="30" width="190" height="30" as="geometry">
            <mxRectangle width="190" height="30" as="alternateBounds" />
          </mxGeometry>
        </mxCell>
        <mxCell id="dEcd-b_ub2l0deUxEuGr-685" value="" style="shape=tableRow;horizontal=0;startSize=0;swimlaneHead=0;swimlaneBody=0;fillColor=none;collapsible=0;dropTarget=0;points=[[0,0.5],[1,0.5]];portConstraint=eastwest;top=0;left=0;right=0;bottom=0;" parent="dEcd-b_ub2l0deUxEuGr-672" vertex="1">
          <mxGeometry y="150" width="220" height="30" as="geometry" />
        </mxCell>
        <mxCell id="dEcd-b_ub2l0deUxEuGr-686" value="" style="shape=partialRectangle;connectable=0;fillColor=none;top=0;left=0;bottom=0;right=0;editable=1;overflow=hidden;whiteSpace=wrap;html=1;" parent="dEcd-b_ub2l0deUxEuGr-685" vertex="1">
          <mxGeometry width="30" height="30" as="geometry">
            <mxRectangle width="30" height="30" as="alternateBounds" />
          </mxGeometry>
        </mxCell>
        <mxCell id="dEcd-b_ub2l0deUxEuGr-687" value="password: STRING {Not Null}" style="shape=partialRectangle;connectable=0;fillColor=none;top=0;left=0;bottom=0;right=0;align=left;spacingLeft=6;overflow=hidden;whiteSpace=wrap;html=1;" parent="dEcd-b_ub2l0deUxEuGr-685" vertex="1">
          <mxGeometry x="30" width="190" height="30" as="geometry">
            <mxRectangle width="190" height="30" as="alternateBounds" />
          </mxGeometry>
        </mxCell>
        <mxCell id="dEcd-b_ub2l0deUxEuGr-688" value="" style="shape=tableRow;horizontal=0;startSize=0;swimlaneHead=0;swimlaneBody=0;fillColor=none;collapsible=0;dropTarget=0;points=[[0,0.5],[1,0.5]];portConstraint=eastwest;top=0;left=0;right=0;bottom=0;" parent="dEcd-b_ub2l0deUxEuGr-672" vertex="1">
          <mxGeometry y="180" width="220" height="30" as="geometry" />
        </mxCell>
        <mxCell id="dEcd-b_ub2l0deUxEuGr-689" value="" style="shape=partialRectangle;connectable=0;fillColor=none;top=0;left=0;bottom=0;right=0;editable=1;overflow=hidden;whiteSpace=wrap;html=1;" parent="dEcd-b_ub2l0deUxEuGr-688" vertex="1">
          <mxGeometry width="30" height="30" as="geometry">
            <mxRectangle width="30" height="30" as="alternateBounds" />
          </mxGeometry>
        </mxCell>
        <mxCell id="dEcd-b_ub2l0deUxEuGr-690" value="birthdate: DATE" style="shape=partialRectangle;connectable=0;fillColor=none;top=0;left=0;bottom=0;right=0;align=left;spacingLeft=6;overflow=hidden;whiteSpace=wrap;html=1;" parent="dEcd-b_ub2l0deUxEuGr-688" vertex="1">
          <mxGeometry x="30" width="190" height="30" as="geometry">
            <mxRectangle width="190" height="30" as="alternateBounds" />
          </mxGeometry>
        </mxCell>
        <mxCell id="dEcd-b_ub2l0deUxEuGr-691" value="" style="shape=tableRow;horizontal=0;startSize=0;swimlaneHead=0;swimlaneBody=0;fillColor=none;collapsible=0;dropTarget=0;points=[[0,0.5],[1,0.5]];portConstraint=eastwest;top=0;left=0;right=0;bottom=0;" parent="dEcd-b_ub2l0deUxEuGr-672" vertex="1">
          <mxGeometry y="210" width="220" height="30" as="geometry" />
        </mxCell>
        <mxCell id="dEcd-b_ub2l0deUxEuGr-692" value="" style="shape=partialRectangle;connectable=0;fillColor=none;top=0;left=0;bottom=0;right=0;editable=1;overflow=hidden;whiteSpace=wrap;html=1;" parent="dEcd-b_ub2l0deUxEuGr-691" vertex="1">
          <mxGeometry width="30" height="30" as="geometry">
            <mxRectangle width="30" height="30" as="alternateBounds" />
          </mxGeometry>
        </mxCell>
        <mxCell id="dEcd-b_ub2l0deUxEuGr-693" value="address: STRING" style="shape=partialRectangle;connectable=0;fillColor=none;top=0;left=0;bottom=0;right=0;align=left;spacingLeft=6;overflow=hidden;whiteSpace=wrap;html=1;" parent="dEcd-b_ub2l0deUxEuGr-691" vertex="1">
          <mxGeometry x="30" width="190" height="30" as="geometry">
            <mxRectangle width="190" height="30" as="alternateBounds" />
          </mxGeometry>
        </mxCell>
        <mxCell id="dEcd-b_ub2l0deUxEuGr-694" value="" style="shape=tableRow;horizontal=0;startSize=0;swimlaneHead=0;swimlaneBody=0;fillColor=none;collapsible=0;dropTarget=0;points=[[0,0.5],[1,0.5]];portConstraint=eastwest;top=0;left=0;right=0;bottom=0;" parent="dEcd-b_ub2l0deUxEuGr-672" vertex="1">
          <mxGeometry y="240" width="220" height="30" as="geometry" />
        </mxCell>
        <mxCell id="dEcd-b_ub2l0deUxEuGr-695" value="" style="shape=partialRectangle;connectable=0;fillColor=none;top=0;left=0;bottom=0;right=0;editable=1;overflow=hidden;whiteSpace=wrap;html=1;" parent="dEcd-b_ub2l0deUxEuGr-694" vertex="1">
          <mxGeometry width="30" height="30" as="geometry">
            <mxRectangle width="30" height="30" as="alternateBounds" />
          </mxGeometry>
        </mxCell>
        <mxCell id="dEcd-b_ub2l0deUxEuGr-696" value="phonenumber: STRING" style="shape=partialRectangle;connectable=0;fillColor=none;top=0;left=0;bottom=0;right=0;align=left;spacingLeft=6;overflow=hidden;whiteSpace=wrap;html=1;" parent="dEcd-b_ub2l0deUxEuGr-694" vertex="1">
          <mxGeometry x="30" width="190" height="30" as="geometry">
            <mxRectangle width="190" height="30" as="alternateBounds" />
          </mxGeometry>
        </mxCell>
        <mxCell id="dEcd-b_ub2l0deUxEuGr-697" value="" style="shape=tableRow;horizontal=0;startSize=0;swimlaneHead=0;swimlaneBody=0;fillColor=none;collapsible=0;dropTarget=0;points=[[0,0.5],[1,0.5]];portConstraint=eastwest;top=0;left=0;right=0;bottom=0;" parent="dEcd-b_ub2l0deUxEuGr-672" vertex="1">
          <mxGeometry y="270" width="220" height="30" as="geometry" />
        </mxCell>
        <mxCell id="dEcd-b_ub2l0deUxEuGr-698" value="" style="shape=partialRectangle;connectable=0;fillColor=none;top=0;left=0;bottom=0;right=0;editable=1;overflow=hidden;whiteSpace=wrap;html=1;" parent="dEcd-b_ub2l0deUxEuGr-697" vertex="1">
          <mxGeometry width="30" height="30" as="geometry">
            <mxRectangle width="30" height="30" as="alternateBounds" />
          </mxGeometry>
        </mxCell>
        <mxCell id="dEcd-b_ub2l0deUxEuGr-699" value="role: ENUM" style="shape=partialRectangle;connectable=0;fillColor=none;top=0;left=0;bottom=0;right=0;align=left;spacingLeft=6;overflow=hidden;whiteSpace=wrap;html=1;" parent="dEcd-b_ub2l0deUxEuGr-697" vertex="1">
          <mxGeometry x="30" width="190" height="30" as="geometry">
            <mxRectangle width="190" height="30" as="alternateBounds" />
          </mxGeometry>
        </mxCell>
        <mxCell id="dEcd-b_ub2l0deUxEuGr-700" value="" style="shape=tableRow;horizontal=0;startSize=0;swimlaneHead=0;swimlaneBody=0;fillColor=none;collapsible=0;dropTarget=0;points=[[0,0.5],[1,0.5]];portConstraint=eastwest;top=0;left=0;right=0;bottom=0;" parent="dEcd-b_ub2l0deUxEuGr-672" vertex="1">
          <mxGeometry y="300" width="220" height="30" as="geometry" />
        </mxCell>
        <mxCell id="dEcd-b_ub2l0deUxEuGr-701" value="" style="shape=partialRectangle;connectable=0;fillColor=none;top=0;left=0;bottom=0;right=0;editable=1;overflow=hidden;whiteSpace=wrap;html=1;" parent="dEcd-b_ub2l0deUxEuGr-700" vertex="1">
          <mxGeometry width="30" height="30" as="geometry">
            <mxRectangle width="30" height="30" as="alternateBounds" />
          </mxGeometry>
        </mxCell>
        <mxCell id="dEcd-b_ub2l0deUxEuGr-702" value="isActive: BOOLEAN" style="shape=partialRectangle;connectable=0;fillColor=none;top=0;left=0;bottom=0;right=0;align=left;spacingLeft=6;overflow=hidden;whiteSpace=wrap;html=1;" parent="dEcd-b_ub2l0deUxEuGr-700" vertex="1">
          <mxGeometry x="30" width="190" height="30" as="geometry">
            <mxRectangle width="190" height="30" as="alternateBounds" />
          </mxGeometry>
        </mxCell>
        <mxCell id="dEcd-b_ub2l0deUxEuGr-703" value="Customer" style="shape=table;startSize=30;container=1;collapsible=1;childLayout=tableLayout;fixedRows=1;rowLines=0;fontStyle=1;align=center;resizeLast=1;html=1;fillColor=#dae8fc;strokeColor=#6c8ebf;" parent="1" vertex="1">
          <mxGeometry x="1490" y="705" width="130" height="75" as="geometry" />
        </mxCell>
        <mxCell id="dEcd-b_ub2l0deUxEuGr-704" value="" style="shape=tableRow;horizontal=0;startSize=0;swimlaneHead=0;swimlaneBody=0;fillColor=none;collapsible=0;dropTarget=0;points=[[0,0.5],[1,0.5]];portConstraint=eastwest;top=0;left=0;right=0;bottom=1;" parent="dEcd-b_ub2l0deUxEuGr-703" vertex="1">
          <mxGeometry y="30" width="130" height="40" as="geometry" />
        </mxCell>
        <mxCell id="dEcd-b_ub2l0deUxEuGr-705" value="PK&lt;div&gt;FK&lt;/div&gt;" style="shape=partialRectangle;connectable=0;fillColor=none;top=0;left=0;bottom=0;right=0;fontStyle=1;overflow=hidden;whiteSpace=wrap;html=1;" parent="dEcd-b_ub2l0deUxEuGr-704" vertex="1">
          <mxGeometry width="30" height="40" as="geometry">
            <mxRectangle width="30" height="40" as="alternateBounds" />
          </mxGeometry>
        </mxCell>
        <mxCell id="dEcd-b_ub2l0deUxEuGr-706" value="customer_id: INT" style="shape=partialRectangle;connectable=0;fillColor=none;top=0;left=0;bottom=0;right=0;align=left;spacingLeft=6;fontStyle=5;overflow=hidden;whiteSpace=wrap;html=1;" parent="dEcd-b_ub2l0deUxEuGr-704" vertex="1">
          <mxGeometry x="30" width="100" height="40" as="geometry">
            <mxRectangle width="100" height="40" as="alternateBounds" />
          </mxGeometry>
        </mxCell>
        <mxCell id="dEcd-b_ub2l0deUxEuGr-707" value="Provider" style="shape=table;startSize=30;container=1;collapsible=1;childLayout=tableLayout;fixedRows=1;rowLines=0;fontStyle=1;align=center;resizeLast=1;html=1;fillColor=#e1d5e7;strokeColor=#9673a6;" parent="1" vertex="1">
          <mxGeometry x="1790" y="720" width="150" height="85" as="geometry" />
        </mxCell>
        <mxCell id="dEcd-b_ub2l0deUxEuGr-708" value="" style="shape=tableRow;horizontal=0;startSize=0;swimlaneHead=0;swimlaneBody=0;fillColor=none;collapsible=0;dropTarget=0;points=[[0,0.5],[1,0.5]];portConstraint=eastwest;top=0;left=0;right=0;bottom=1;" parent="dEcd-b_ub2l0deUxEuGr-707" vertex="1">
          <mxGeometry y="30" width="150" height="55" as="geometry" />
        </mxCell>
        <mxCell id="dEcd-b_ub2l0deUxEuGr-709" value="PK&lt;div&gt;FK&lt;/div&gt;" style="shape=partialRectangle;connectable=0;fillColor=none;top=0;left=0;bottom=0;right=0;fontStyle=1;overflow=hidden;whiteSpace=wrap;html=1;" parent="dEcd-b_ub2l0deUxEuGr-708" vertex="1">
          <mxGeometry width="30" height="55" as="geometry">
            <mxRectangle width="30" height="55" as="alternateBounds" />
          </mxGeometry>
        </mxCell>
        <mxCell id="dEcd-b_ub2l0deUxEuGr-710" value="provider_id: INT" style="shape=partialRectangle;connectable=0;fillColor=none;top=0;left=0;bottom=0;right=0;align=left;spacingLeft=6;fontStyle=5;overflow=hidden;whiteSpace=wrap;html=1;" parent="dEcd-b_ub2l0deUxEuGr-708" vertex="1">
          <mxGeometry x="30" width="120" height="55" as="geometry">
            <mxRectangle width="120" height="55" as="alternateBounds" />
          </mxGeometry>
        </mxCell>
        <mxCell id="dEcd-b_ub2l0deUxEuGr-711" value="Admin" style="shape=table;startSize=30;container=1;collapsible=1;childLayout=tableLayout;fixedRows=1;rowLines=0;fontStyle=1;align=center;resizeLast=1;html=1;fillColor=#d5e8d4;strokeColor=#82b366;" parent="1" vertex="1">
          <mxGeometry x="1190" y="480" width="190" height="83" as="geometry" />
        </mxCell>
        <mxCell id="dEcd-b_ub2l0deUxEuGr-712" value="" style="shape=tableRow;horizontal=0;startSize=0;swimlaneHead=0;swimlaneBody=0;fillColor=none;collapsible=0;dropTarget=0;points=[[0,0.5],[1,0.5]];portConstraint=eastwest;top=0;left=0;right=0;bottom=1;" parent="dEcd-b_ub2l0deUxEuGr-711" vertex="1">
          <mxGeometry y="30" width="190" height="53" as="geometry" />
        </mxCell>
        <mxCell id="dEcd-b_ub2l0deUxEuGr-713" value="PK FK" style="shape=partialRectangle;connectable=0;fillColor=none;top=0;left=0;bottom=0;right=0;fontStyle=1;overflow=hidden;whiteSpace=wrap;html=1;" parent="dEcd-b_ub2l0deUxEuGr-712" vertex="1">
          <mxGeometry width="30" height="53" as="geometry">
            <mxRectangle width="30" height="53" as="alternateBounds" />
          </mxGeometry>
        </mxCell>
        <mxCell id="dEcd-b_ub2l0deUxEuGr-714" value="admin_id: INT" style="shape=partialRectangle;connectable=0;fillColor=none;top=0;left=0;bottom=0;right=0;align=left;spacingLeft=6;fontStyle=5;overflow=hidden;whiteSpace=wrap;html=1;" parent="dEcd-b_ub2l0deUxEuGr-712" vertex="1">
          <mxGeometry x="30" width="160" height="53" as="geometry">
            <mxRectangle width="160" height="53" as="alternateBounds" />
          </mxGeometry>
        </mxCell>
        <mxCell id="dEcd-b_ub2l0deUxEuGr-715" value="Category" style="shape=table;startSize=30;container=1;collapsible=1;childLayout=tableLayout;fixedRows=1;rowLines=0;fontStyle=1;align=center;resizeLast=1;html=1;fillColor=#e1d5e7;strokeColor=#9673a6;" parent="1" vertex="1">
          <mxGeometry x="2330" y="1090" width="150" height="120" as="geometry" />
        </mxCell>
        <mxCell id="dEcd-b_ub2l0deUxEuGr-716" value="" style="shape=tableRow;horizontal=0;startSize=0;swimlaneHead=0;swimlaneBody=0;fillColor=none;collapsible=0;dropTarget=0;points=[[0,0.5],[1,0.5]];portConstraint=eastwest;top=0;left=0;right=0;bottom=1;" parent="dEcd-b_ub2l0deUxEuGr-715" vertex="1">
          <mxGeometry y="30" width="150" height="30" as="geometry" />
        </mxCell>
        <mxCell id="dEcd-b_ub2l0deUxEuGr-717" value="PK" style="shape=partialRectangle;connectable=0;fillColor=none;top=0;left=0;bottom=0;right=0;fontStyle=1;overflow=hidden;whiteSpace=wrap;html=1;" parent="dEcd-b_ub2l0deUxEuGr-716" vertex="1">
          <mxGeometry width="30" height="30" as="geometry">
            <mxRectangle width="30" height="30" as="alternateBounds" />
          </mxGeometry>
        </mxCell>
        <mxCell id="dEcd-b_ub2l0deUxEuGr-718" value="category_id: INT" style="shape=partialRectangle;connectable=0;fillColor=none;top=0;left=0;bottom=0;right=0;align=left;spacingLeft=6;fontStyle=5;overflow=hidden;whiteSpace=wrap;html=1;" parent="dEcd-b_ub2l0deUxEuGr-716" vertex="1">
          <mxGeometry x="30" width="120" height="30" as="geometry">
            <mxRectangle width="120" height="30" as="alternateBounds" />
          </mxGeometry>
        </mxCell>
        <mxCell id="dEcd-b_ub2l0deUxEuGr-719" value="" style="shape=tableRow;horizontal=0;startSize=0;swimlaneHead=0;swimlaneBody=0;fillColor=none;collapsible=0;dropTarget=0;points=[[0,0.5],[1,0.5]];portConstraint=eastwest;top=0;left=0;right=0;bottom=0;" parent="dEcd-b_ub2l0deUxEuGr-715" vertex="1">
          <mxGeometry y="60" width="150" height="30" as="geometry" />
        </mxCell>
        <mxCell id="dEcd-b_ub2l0deUxEuGr-720" value="" style="shape=partialRectangle;connectable=0;fillColor=none;top=0;left=0;bottom=0;right=0;editable=1;overflow=hidden;whiteSpace=wrap;html=1;" parent="dEcd-b_ub2l0deUxEuGr-719" vertex="1">
          <mxGeometry width="30" height="30" as="geometry">
            <mxRectangle width="30" height="30" as="alternateBounds" />
          </mxGeometry>
        </mxCell>
        <mxCell id="dEcd-b_ub2l0deUxEuGr-721" value="title: STRING" style="shape=partialRectangle;connectable=0;fillColor=none;top=0;left=0;bottom=0;right=0;align=left;spacingLeft=6;overflow=hidden;whiteSpace=wrap;html=1;" parent="dEcd-b_ub2l0deUxEuGr-719" vertex="1">
          <mxGeometry x="30" width="120" height="30" as="geometry">
            <mxRectangle width="120" height="30" as="alternateBounds" />
          </mxGeometry>
        </mxCell>
        <mxCell id="dEcd-b_ub2l0deUxEuGr-722" value="" style="shape=tableRow;horizontal=0;startSize=0;swimlaneHead=0;swimlaneBody=0;fillColor=none;collapsible=0;dropTarget=0;points=[[0,0.5],[1,0.5]];portConstraint=eastwest;top=0;left=0;right=0;bottom=0;" parent="dEcd-b_ub2l0deUxEuGr-715" vertex="1">
          <mxGeometry y="90" width="150" height="30" as="geometry" />
        </mxCell>
        <mxCell id="dEcd-b_ub2l0deUxEuGr-723" value="" style="shape=partialRectangle;connectable=0;fillColor=none;top=0;left=0;bottom=0;right=0;editable=1;overflow=hidden;whiteSpace=wrap;html=1;" parent="dEcd-b_ub2l0deUxEuGr-722" vertex="1">
          <mxGeometry width="30" height="30" as="geometry">
            <mxRectangle width="30" height="30" as="alternateBounds" />
          </mxGeometry>
        </mxCell>
        <mxCell id="dEcd-b_ub2l0deUxEuGr-724" value="description: STRING" style="shape=partialRectangle;connectable=0;fillColor=none;top=0;left=0;bottom=0;right=0;align=left;spacingLeft=6;overflow=hidden;whiteSpace=wrap;html=1;" parent="dEcd-b_ub2l0deUxEuGr-722" vertex="1">
          <mxGeometry x="30" width="120" height="30" as="geometry">
            <mxRectangle width="120" height="30" as="alternateBounds" />
          </mxGeometry>
        </mxCell>
        <mxCell id="dEcd-b_ub2l0deUxEuGr-725" value="" style="group" parent="1" vertex="1" connectable="0">
          <mxGeometry x="1300" y="985" width="220" height="280" as="geometry" />
        </mxCell>
        <mxCell id="dEcd-b_ub2l0deUxEuGr-726" value="Booking" style="shape=table;startSize=30;container=1;collapsible=1;childLayout=tableLayout;fixedRows=1;rowLines=0;fontStyle=1;align=center;resizeLast=1;html=1;fillColor=#dae8fc;strokeColor=#6c8ebf;" parent="dEcd-b_ub2l0deUxEuGr-725" vertex="1">
          <mxGeometry width="220" height="280" as="geometry" />
        </mxCell>
        <mxCell id="dEcd-b_ub2l0deUxEuGr-727" value="" style="shape=tableRow;horizontal=0;startSize=0;swimlaneHead=0;swimlaneBody=0;fillColor=none;collapsible=0;dropTarget=0;points=[[0,0.5],[1,0.5]];portConstraint=eastwest;top=0;left=0;right=0;bottom=1;" parent="dEcd-b_ub2l0deUxEuGr-726" vertex="1">
          <mxGeometry y="30" width="220" height="30" as="geometry" />
        </mxCell>
        <mxCell id="dEcd-b_ub2l0deUxEuGr-728" value="PK" style="shape=partialRectangle;connectable=0;fillColor=none;top=0;left=0;bottom=0;right=0;fontStyle=1;overflow=hidden;whiteSpace=wrap;html=1;" parent="dEcd-b_ub2l0deUxEuGr-727" vertex="1">
          <mxGeometry width="30" height="30" as="geometry">
            <mxRectangle width="30" height="30" as="alternateBounds" />
          </mxGeometry>
        </mxCell>
        <mxCell id="dEcd-b_ub2l0deUxEuGr-729" value="booking_id: INT" style="shape=partialRectangle;connectable=0;fillColor=none;top=0;left=0;bottom=0;right=0;align=left;spacingLeft=6;fontStyle=5;overflow=hidden;whiteSpace=wrap;html=1;" parent="dEcd-b_ub2l0deUxEuGr-727" vertex="1">
          <mxGeometry x="30" width="190" height="30" as="geometry">
            <mxRectangle width="190" height="30" as="alternateBounds" />
          </mxGeometry>
        </mxCell>
        <mxCell id="dEcd-b_ub2l0deUxEuGr-730" value="" style="shape=tableRow;horizontal=0;startSize=0;swimlaneHead=0;swimlaneBody=0;fillColor=none;collapsible=0;dropTarget=0;points=[[0,0.5],[1,0.5]];portConstraint=eastwest;top=0;left=0;right=0;bottom=0;" parent="dEcd-b_ub2l0deUxEuGr-726" vertex="1">
          <mxGeometry y="60" width="220" height="40" as="geometry" />
        </mxCell>
        <mxCell id="dEcd-b_ub2l0deUxEuGr-731" value="" style="shape=partialRectangle;connectable=0;fillColor=none;top=0;left=0;bottom=0;right=0;editable=1;overflow=hidden;whiteSpace=wrap;html=1;" parent="dEcd-b_ub2l0deUxEuGr-730" vertex="1">
          <mxGeometry width="30" height="40" as="geometry">
            <mxRectangle width="30" height="40" as="alternateBounds" />
          </mxGeometry>
        </mxCell>
        <mxCell id="dEcd-b_ub2l0deUxEuGr-732" value="&#xa;&lt;span style=&quot;color: rgb(0, 0, 0); font-family: Helvetica; font-size: 12px; font-style: normal; font-variant-ligatures: normal; font-variant-caps: normal; font-weight: 400; letter-spacing: normal; orphans: 2; text-align: left; text-indent: 0px; text-transform: none; widows: 2; word-spacing: 0px; -webkit-text-stroke-width: 0px; white-space: normal; background-color: rgb(251, 251, 251); text-decoration-thickness: initial; text-decoration-style: initial; text-decoration-color: initial; display: inline !important; float: none;&quot;&gt;datebooking: DATETIME&lt;/span&gt;&#xa;&#xa;" style="shape=partialRectangle;connectable=0;fillColor=none;top=0;left=0;bottom=0;right=0;align=left;spacingLeft=6;overflow=hidden;whiteSpace=wrap;html=1;" parent="dEcd-b_ub2l0deUxEuGr-730" vertex="1">
          <mxGeometry x="30" width="190" height="40" as="geometry">
            <mxRectangle width="190" height="40" as="alternateBounds" />
          </mxGeometry>
        </mxCell>
        <mxCell id="dEcd-b_ub2l0deUxEuGr-733" value="" style="shape=tableRow;horizontal=0;startSize=0;swimlaneHead=0;swimlaneBody=0;fillColor=none;collapsible=0;dropTarget=0;points=[[0,0.5],[1,0.5]];portConstraint=eastwest;top=0;left=0;right=0;bottom=0;" parent="dEcd-b_ub2l0deUxEuGr-726" vertex="1">
          <mxGeometry y="100" width="220" height="30" as="geometry" />
        </mxCell>
        <mxCell id="dEcd-b_ub2l0deUxEuGr-734" value="" style="shape=partialRectangle;connectable=0;fillColor=none;top=0;left=0;bottom=0;right=0;editable=1;overflow=hidden;whiteSpace=wrap;html=1;" parent="dEcd-b_ub2l0deUxEuGr-733" vertex="1">
          <mxGeometry width="30" height="30" as="geometry">
            <mxRectangle width="30" height="30" as="alternateBounds" />
          </mxGeometry>
        </mxCell>
        <mxCell id="dEcd-b_ub2l0deUxEuGr-735" value="totalprice: DOUBLE" style="shape=partialRectangle;connectable=0;fillColor=none;top=0;left=0;bottom=0;right=0;align=left;spacingLeft=6;overflow=hidden;whiteSpace=wrap;html=1;" parent="dEcd-b_ub2l0deUxEuGr-733" vertex="1">
          <mxGeometry x="30" width="190" height="30" as="geometry">
            <mxRectangle width="190" height="30" as="alternateBounds" />
          </mxGeometry>
        </mxCell>
        <mxCell id="dEcd-b_ub2l0deUxEuGr-736" value="" style="shape=tableRow;horizontal=0;startSize=0;swimlaneHead=0;swimlaneBody=0;fillColor=none;collapsible=0;dropTarget=0;points=[[0,0.5],[1,0.5]];portConstraint=eastwest;top=0;left=0;right=0;bottom=0;" parent="dEcd-b_ub2l0deUxEuGr-726" vertex="1">
          <mxGeometry y="130" width="220" height="30" as="geometry" />
        </mxCell>
        <mxCell id="dEcd-b_ub2l0deUxEuGr-737" value="" style="shape=partialRectangle;connectable=0;fillColor=none;top=0;left=0;bottom=0;right=0;editable=1;overflow=hidden;whiteSpace=wrap;html=1;" parent="dEcd-b_ub2l0deUxEuGr-736" vertex="1">
          <mxGeometry width="30" height="30" as="geometry">
            <mxRectangle width="30" height="30" as="alternateBounds" />
          </mxGeometry>
        </mxCell>
        <mxCell id="dEcd-b_ub2l0deUxEuGr-738" value="status: ENUM&amp;nbsp;" style="shape=partialRectangle;connectable=0;fillColor=none;top=0;left=0;bottom=0;right=0;align=left;spacingLeft=6;overflow=hidden;whiteSpace=wrap;html=1;" parent="dEcd-b_ub2l0deUxEuGr-736" vertex="1">
          <mxGeometry x="30" width="190" height="30" as="geometry">
            <mxRectangle width="190" height="30" as="alternateBounds" />
          </mxGeometry>
        </mxCell>
        <mxCell id="dEcd-b_ub2l0deUxEuGr-739" value="" style="shape=tableRow;horizontal=0;startSize=0;swimlaneHead=0;swimlaneBody=0;fillColor=none;collapsible=0;dropTarget=0;points=[[0,0.5],[1,0.5]];portConstraint=eastwest;top=0;left=0;right=0;bottom=0;" parent="dEcd-b_ub2l0deUxEuGr-726" vertex="1">
          <mxGeometry y="160" width="220" height="30" as="geometry" />
        </mxCell>
        <mxCell id="dEcd-b_ub2l0deUxEuGr-740" value="" style="shape=partialRectangle;connectable=0;fillColor=none;top=0;left=0;bottom=0;right=0;editable=1;overflow=hidden;whiteSpace=wrap;html=1;" parent="dEcd-b_ub2l0deUxEuGr-739" vertex="1">
          <mxGeometry width="30" height="30" as="geometry">
            <mxRectangle width="30" height="30" as="alternateBounds" />
          </mxGeometry>
        </mxCell>
        <mxCell id="dEcd-b_ub2l0deUxEuGr-741" value="customer_id: INT" style="shape=partialRectangle;connectable=0;fillColor=none;top=0;left=0;bottom=0;right=0;align=left;spacingLeft=6;overflow=hidden;whiteSpace=wrap;html=1;" parent="dEcd-b_ub2l0deUxEuGr-739" vertex="1">
          <mxGeometry x="30" width="190" height="30" as="geometry">
            <mxRectangle width="190" height="30" as="alternateBounds" />
          </mxGeometry>
        </mxCell>
        <mxCell id="dEcd-b_ub2l0deUxEuGr-742" value="" style="shape=tableRow;horizontal=0;startSize=0;swimlaneHead=0;swimlaneBody=0;fillColor=none;collapsible=0;dropTarget=0;points=[[0,0.5],[1,0.5]];portConstraint=eastwest;top=0;left=0;right=0;bottom=0;" parent="dEcd-b_ub2l0deUxEuGr-726" vertex="1">
          <mxGeometry y="190" width="220" height="30" as="geometry" />
        </mxCell>
        <mxCell id="dEcd-b_ub2l0deUxEuGr-743" value="" style="shape=partialRectangle;connectable=0;fillColor=none;top=0;left=0;bottom=0;right=0;editable=1;overflow=hidden;whiteSpace=wrap;html=1;" parent="dEcd-b_ub2l0deUxEuGr-742" vertex="1">
          <mxGeometry width="30" height="30" as="geometry">
            <mxRectangle width="30" height="30" as="alternateBounds" />
          </mxGeometry>
        </mxCell>
        <mxCell id="dEcd-b_ub2l0deUxEuGr-744" value="provider_id: INT" style="shape=partialRectangle;connectable=0;fillColor=none;top=0;left=0;bottom=0;right=0;align=left;spacingLeft=6;overflow=hidden;whiteSpace=wrap;html=1;" parent="dEcd-b_ub2l0deUxEuGr-742" vertex="1">
          <mxGeometry x="30" width="190" height="30" as="geometry">
            <mxRectangle width="190" height="30" as="alternateBounds" />
          </mxGeometry>
        </mxCell>
        <mxCell id="dEcd-b_ub2l0deUxEuGr-745" value="" style="shape=tableRow;horizontal=0;startSize=0;swimlaneHead=0;swimlaneBody=0;fillColor=none;collapsible=0;dropTarget=0;points=[[0,0.5],[1,0.5]];portConstraint=eastwest;top=0;left=0;right=0;bottom=0;" parent="dEcd-b_ub2l0deUxEuGr-726" vertex="1">
          <mxGeometry y="220" width="220" height="30" as="geometry" />
        </mxCell>
        <mxCell id="dEcd-b_ub2l0deUxEuGr-746" value="" style="shape=partialRectangle;connectable=0;fillColor=none;top=0;left=0;bottom=0;right=0;editable=1;overflow=hidden;whiteSpace=wrap;html=1;" parent="dEcd-b_ub2l0deUxEuGr-745" vertex="1">
          <mxGeometry width="30" height="30" as="geometry">
            <mxRectangle width="30" height="30" as="alternateBounds" />
          </mxGeometry>
        </mxCell>
        <mxCell id="dEcd-b_ub2l0deUxEuGr-747" value="schedule_id: INT" style="shape=partialRectangle;connectable=0;fillColor=none;top=0;left=0;bottom=0;right=0;align=left;spacingLeft=6;overflow=hidden;whiteSpace=wrap;html=1;" parent="dEcd-b_ub2l0deUxEuGr-745" vertex="1">
          <mxGeometry x="30" width="190" height="30" as="geometry">
            <mxRectangle width="190" height="30" as="alternateBounds" />
          </mxGeometry>
        </mxCell>
        <mxCell id="dEcd-b_ub2l0deUxEuGr-748" value="" style="shape=tableRow;horizontal=0;startSize=0;swimlaneHead=0;swimlaneBody=0;fillColor=none;collapsible=0;dropTarget=0;points=[[0,0.5],[1,0.5]];portConstraint=eastwest;top=0;left=0;right=0;bottom=0;" parent="dEcd-b_ub2l0deUxEuGr-726" vertex="1">
          <mxGeometry y="250" width="220" height="30" as="geometry" />
        </mxCell>
        <mxCell id="dEcd-b_ub2l0deUxEuGr-749" value="" style="shape=partialRectangle;connectable=0;fillColor=none;top=0;left=0;bottom=0;right=0;editable=1;overflow=hidden;whiteSpace=wrap;html=1;" parent="dEcd-b_ub2l0deUxEuGr-748" vertex="1">
          <mxGeometry width="30" height="30" as="geometry">
            <mxRectangle width="30" height="30" as="alternateBounds" />
          </mxGeometry>
        </mxCell>
        <mxCell id="dEcd-b_ub2l0deUxEuGr-750" value="service_id: INT" style="shape=partialRectangle;connectable=0;fillColor=none;top=0;left=0;bottom=0;right=0;align=left;spacingLeft=6;overflow=hidden;whiteSpace=wrap;html=1;" parent="dEcd-b_ub2l0deUxEuGr-748" vertex="1">
          <mxGeometry x="30" width="190" height="30" as="geometry">
            <mxRectangle width="190" height="30" as="alternateBounds" />
          </mxGeometry>
        </mxCell>
        <mxCell id="dEcd-b_ub2l0deUxEuGr-751" value="FK" style="shape=partialRectangle;connectable=0;fillColor=none;top=0;left=0;bottom=0;right=0;fontStyle=1;overflow=hidden;whiteSpace=wrap;html=1;" parent="dEcd-b_ub2l0deUxEuGr-725" vertex="1">
          <mxGeometry y="220" width="30" height="30" as="geometry">
            <mxRectangle width="30" height="30" as="alternateBounds" />
          </mxGeometry>
        </mxCell>
        <mxCell id="dEcd-b_ub2l0deUxEuGr-752" value="FK" style="shape=partialRectangle;connectable=0;fillColor=none;top=0;left=0;bottom=0;right=0;fontStyle=1;overflow=hidden;whiteSpace=wrap;html=1;" parent="dEcd-b_ub2l0deUxEuGr-725" vertex="1">
          <mxGeometry y="190" width="30" height="30" as="geometry">
            <mxRectangle width="30" height="30" as="alternateBounds" />
          </mxGeometry>
        </mxCell>
        <mxCell id="dEcd-b_ub2l0deUxEuGr-753" value="FK" style="shape=partialRectangle;connectable=0;fillColor=none;top=0;left=0;bottom=0;right=0;fontStyle=1;overflow=hidden;whiteSpace=wrap;html=1;" parent="dEcd-b_ub2l0deUxEuGr-725" vertex="1">
          <mxGeometry y="160" width="30" height="30" as="geometry">
            <mxRectangle width="30" height="30" as="alternateBounds" />
          </mxGeometry>
        </mxCell>
        <mxCell id="dEcd-b_ub2l0deUxEuGr-754" value="FK" style="shape=partialRectangle;connectable=0;fillColor=none;top=0;left=0;bottom=0;right=0;fontStyle=1;overflow=hidden;whiteSpace=wrap;html=1;" parent="dEcd-b_ub2l0deUxEuGr-725" vertex="1">
          <mxGeometry y="250" width="30" height="30" as="geometry">
            <mxRectangle width="30" height="30" as="alternateBounds" />
          </mxGeometry>
        </mxCell>
        <mxCell id="dEcd-b_ub2l0deUxEuGr-755" value="" style="group" parent="1" vertex="1" connectable="0">
          <mxGeometry x="1890" y="1020" width="220" height="270" as="geometry" />
        </mxCell>
        <mxCell id="dEcd-b_ub2l0deUxEuGr-756" value="Service" style="shape=table;startSize=30;container=1;collapsible=1;childLayout=tableLayout;fixedRows=1;rowLines=0;fontStyle=1;align=center;resizeLast=1;html=1;fillColor=#e1d5e7;strokeColor=#9673a6;" parent="dEcd-b_ub2l0deUxEuGr-755" vertex="1">
          <mxGeometry width="220" height="240" as="geometry" />
        </mxCell>
        <mxCell id="dEcd-b_ub2l0deUxEuGr-757" value="" style="shape=tableRow;horizontal=0;startSize=0;swimlaneHead=0;swimlaneBody=0;fillColor=none;collapsible=0;dropTarget=0;points=[[0,0.5],[1,0.5]];portConstraint=eastwest;top=0;left=0;right=0;bottom=1;" parent="dEcd-b_ub2l0deUxEuGr-756" vertex="1">
          <mxGeometry y="30" width="220" height="30" as="geometry" />
        </mxCell>
        <mxCell id="dEcd-b_ub2l0deUxEuGr-758" value="PK" style="shape=partialRectangle;connectable=0;fillColor=none;top=0;left=0;bottom=0;right=0;fontStyle=1;overflow=hidden;whiteSpace=wrap;html=1;" parent="dEcd-b_ub2l0deUxEuGr-757" vertex="1">
          <mxGeometry width="30" height="30" as="geometry">
            <mxRectangle width="30" height="30" as="alternateBounds" />
          </mxGeometry>
        </mxCell>
        <mxCell id="dEcd-b_ub2l0deUxEuGr-759" value="service_id: INT" style="shape=partialRectangle;connectable=0;fillColor=none;top=0;left=0;bottom=0;right=0;align=left;spacingLeft=6;fontStyle=5;overflow=hidden;whiteSpace=wrap;html=1;" parent="dEcd-b_ub2l0deUxEuGr-757" vertex="1">
          <mxGeometry x="30" width="190" height="30" as="geometry">
            <mxRectangle width="190" height="30" as="alternateBounds" />
          </mxGeometry>
        </mxCell>
        <mxCell id="dEcd-b_ub2l0deUxEuGr-760" value="" style="shape=tableRow;horizontal=0;startSize=0;swimlaneHead=0;swimlaneBody=0;fillColor=none;collapsible=0;dropTarget=0;points=[[0,0.5],[1,0.5]];portConstraint=eastwest;top=0;left=0;right=0;bottom=0;" parent="dEcd-b_ub2l0deUxEuGr-756" vertex="1">
          <mxGeometry y="60" width="220" height="30" as="geometry" />
        </mxCell>
        <mxCell id="dEcd-b_ub2l0deUxEuGr-761" value="" style="shape=partialRectangle;connectable=0;fillColor=none;top=0;left=0;bottom=0;right=0;editable=1;overflow=hidden;whiteSpace=wrap;html=1;" parent="dEcd-b_ub2l0deUxEuGr-760" vertex="1">
          <mxGeometry width="30" height="30" as="geometry">
            <mxRectangle width="30" height="30" as="alternateBounds" />
          </mxGeometry>
        </mxCell>
        <mxCell id="dEcd-b_ub2l0deUxEuGr-762" value="&lt;span style=&quot;text-wrap-mode: nowrap;&quot;&gt;title: STRING&lt;/span&gt;" style="shape=partialRectangle;connectable=0;fillColor=none;top=0;left=0;bottom=0;right=0;align=left;spacingLeft=6;overflow=hidden;whiteSpace=wrap;html=1;" parent="dEcd-b_ub2l0deUxEuGr-760" vertex="1">
          <mxGeometry x="30" width="190" height="30" as="geometry">
            <mxRectangle width="190" height="30" as="alternateBounds" />
          </mxGeometry>
        </mxCell>
        <mxCell id="dEcd-b_ub2l0deUxEuGr-763" value="" style="shape=tableRow;horizontal=0;startSize=0;swimlaneHead=0;swimlaneBody=0;fillColor=none;collapsible=0;dropTarget=0;points=[[0,0.5],[1,0.5]];portConstraint=eastwest;top=0;left=0;right=0;bottom=0;" parent="dEcd-b_ub2l0deUxEuGr-756" vertex="1">
          <mxGeometry y="90" width="220" height="30" as="geometry" />
        </mxCell>
        <mxCell id="dEcd-b_ub2l0deUxEuGr-764" value="" style="shape=partialRectangle;connectable=0;fillColor=none;top=0;left=0;bottom=0;right=0;editable=1;overflow=hidden;whiteSpace=wrap;html=1;" parent="dEcd-b_ub2l0deUxEuGr-763" vertex="1">
          <mxGeometry width="30" height="30" as="geometry">
            <mxRectangle width="30" height="30" as="alternateBounds" />
          </mxGeometry>
        </mxCell>
        <mxCell id="dEcd-b_ub2l0deUxEuGr-765" value="&lt;span style=&quot;text-wrap-mode: nowrap;&quot;&gt;description: STRING&lt;/span&gt;" style="shape=partialRectangle;connectable=0;fillColor=none;top=0;left=0;bottom=0;right=0;align=left;spacingLeft=6;overflow=hidden;whiteSpace=wrap;html=1;" parent="dEcd-b_ub2l0deUxEuGr-763" vertex="1">
          <mxGeometry x="30" width="190" height="30" as="geometry">
            <mxRectangle width="190" height="30" as="alternateBounds" />
          </mxGeometry>
        </mxCell>
        <mxCell id="dEcd-b_ub2l0deUxEuGr-766" value="" style="shape=tableRow;horizontal=0;startSize=0;swimlaneHead=0;swimlaneBody=0;fillColor=none;collapsible=0;dropTarget=0;points=[[0,0.5],[1,0.5]];portConstraint=eastwest;top=0;left=0;right=0;bottom=0;" parent="dEcd-b_ub2l0deUxEuGr-756" vertex="1">
          <mxGeometry y="120" width="220" height="30" as="geometry" />
        </mxCell>
        <mxCell id="dEcd-b_ub2l0deUxEuGr-767" value="" style="shape=partialRectangle;connectable=0;fillColor=none;top=0;left=0;bottom=0;right=0;editable=1;overflow=hidden;whiteSpace=wrap;html=1;" parent="dEcd-b_ub2l0deUxEuGr-766" vertex="1">
          <mxGeometry width="30" height="30" as="geometry">
            <mxRectangle width="30" height="30" as="alternateBounds" />
          </mxGeometry>
        </mxCell>
        <mxCell id="dEcd-b_ub2l0deUxEuGr-768" value="&lt;span style=&quot;text-wrap-mode: nowrap;&quot;&gt;duration: INT&lt;/span&gt;" style="shape=partialRectangle;connectable=0;fillColor=none;top=0;left=0;bottom=0;right=0;align=left;spacingLeft=6;overflow=hidden;whiteSpace=wrap;html=1;" parent="dEcd-b_ub2l0deUxEuGr-766" vertex="1">
          <mxGeometry x="30" width="190" height="30" as="geometry">
            <mxRectangle width="190" height="30" as="alternateBounds" />
          </mxGeometry>
        </mxCell>
        <mxCell id="dEcd-b_ub2l0deUxEuGr-769" value="" style="shape=tableRow;horizontal=0;startSize=0;swimlaneHead=0;swimlaneBody=0;fillColor=none;collapsible=0;dropTarget=0;points=[[0,0.5],[1,0.5]];portConstraint=eastwest;top=0;left=0;right=0;bottom=0;" parent="dEcd-b_ub2l0deUxEuGr-756" vertex="1">
          <mxGeometry y="150" width="220" height="30" as="geometry" />
        </mxCell>
        <mxCell id="dEcd-b_ub2l0deUxEuGr-770" value="" style="shape=partialRectangle;connectable=0;fillColor=none;top=0;left=0;bottom=0;right=0;editable=1;overflow=hidden;whiteSpace=wrap;html=1;" parent="dEcd-b_ub2l0deUxEuGr-769" vertex="1">
          <mxGeometry width="30" height="30" as="geometry">
            <mxRectangle width="30" height="30" as="alternateBounds" />
          </mxGeometry>
        </mxCell>
        <mxCell id="dEcd-b_ub2l0deUxEuGr-771" value="&lt;span style=&quot;text-wrap-mode: nowrap;&quot;&gt;price: DOUBLE&lt;/span&gt;" style="shape=partialRectangle;connectable=0;fillColor=none;top=0;left=0;bottom=0;right=0;align=left;spacingLeft=6;overflow=hidden;whiteSpace=wrap;html=1;" parent="dEcd-b_ub2l0deUxEuGr-769" vertex="1">
          <mxGeometry x="30" width="190" height="30" as="geometry">
            <mxRectangle width="190" height="30" as="alternateBounds" />
          </mxGeometry>
        </mxCell>
        <mxCell id="dEcd-b_ub2l0deUxEuGr-772" value="" style="shape=tableRow;horizontal=0;startSize=0;swimlaneHead=0;swimlaneBody=0;fillColor=none;collapsible=0;dropTarget=0;points=[[0,0.5],[1,0.5]];portConstraint=eastwest;top=0;left=0;right=0;bottom=0;" parent="dEcd-b_ub2l0deUxEuGr-756" vertex="1">
          <mxGeometry y="180" width="220" height="30" as="geometry" />
        </mxCell>
        <mxCell id="dEcd-b_ub2l0deUxEuGr-773" value="" style="shape=partialRectangle;connectable=0;fillColor=none;top=0;left=0;bottom=0;right=0;editable=1;overflow=hidden;whiteSpace=wrap;html=1;" parent="dEcd-b_ub2l0deUxEuGr-772" vertex="1">
          <mxGeometry width="30" height="30" as="geometry">
            <mxRectangle width="30" height="30" as="alternateBounds" />
          </mxGeometry>
        </mxCell>
        <mxCell id="dEcd-b_ub2l0deUxEuGr-774" value="&lt;span style=&quot;text-wrap-mode: nowrap;&quot;&gt;#category_id: INT&lt;/span&gt;" style="shape=partialRectangle;connectable=0;fillColor=none;top=0;left=0;bottom=0;right=0;align=left;spacingLeft=6;overflow=hidden;whiteSpace=wrap;html=1;" parent="dEcd-b_ub2l0deUxEuGr-772" vertex="1">
          <mxGeometry x="30" width="190" height="30" as="geometry">
            <mxRectangle width="190" height="30" as="alternateBounds" />
          </mxGeometry>
        </mxCell>
        <mxCell id="dEcd-b_ub2l0deUxEuGr-775" value="" style="shape=tableRow;horizontal=0;startSize=0;swimlaneHead=0;swimlaneBody=0;fillColor=none;collapsible=0;dropTarget=0;points=[[0,0.5],[1,0.5]];portConstraint=eastwest;top=0;left=0;right=0;bottom=0;" parent="dEcd-b_ub2l0deUxEuGr-756" vertex="1">
          <mxGeometry y="210" width="220" height="30" as="geometry" />
        </mxCell>
        <mxCell id="dEcd-b_ub2l0deUxEuGr-776" value="" style="shape=partialRectangle;connectable=0;fillColor=none;top=0;left=0;bottom=0;right=0;editable=1;overflow=hidden;whiteSpace=wrap;html=1;" parent="dEcd-b_ub2l0deUxEuGr-775" vertex="1">
          <mxGeometry width="30" height="30" as="geometry">
            <mxRectangle width="30" height="30" as="alternateBounds" />
          </mxGeometry>
        </mxCell>
        <mxCell id="dEcd-b_ub2l0deUxEuGr-777" value="&lt;span style=&quot;text-wrap-mode: nowrap;&quot;&gt;#provider_id: int&lt;/span&gt;" style="shape=partialRectangle;connectable=0;fillColor=none;top=0;left=0;bottom=0;right=0;align=left;spacingLeft=6;overflow=hidden;whiteSpace=wrap;html=1;" parent="dEcd-b_ub2l0deUxEuGr-775" vertex="1">
          <mxGeometry x="30" width="190" height="30" as="geometry">
            <mxRectangle width="190" height="30" as="alternateBounds" />
          </mxGeometry>
        </mxCell>
        <mxCell id="dEcd-b_ub2l0deUxEuGr-778" value="FK" style="shape=partialRectangle;connectable=0;fillColor=none;top=0;left=0;bottom=0;right=0;fontStyle=1;overflow=hidden;whiteSpace=wrap;html=1;" parent="dEcd-b_ub2l0deUxEuGr-755" vertex="1">
          <mxGeometry y="180" width="30" height="30" as="geometry">
            <mxRectangle width="30" height="30" as="alternateBounds" />
          </mxGeometry>
        </mxCell>
        <mxCell id="dEcd-b_ub2l0deUxEuGr-779" value="FK" style="shape=partialRectangle;connectable=0;fillColor=none;top=0;left=0;bottom=0;right=0;fontStyle=1;overflow=hidden;whiteSpace=wrap;html=1;" parent="dEcd-b_ub2l0deUxEuGr-755" vertex="1">
          <mxGeometry y="210" width="30" height="30" as="geometry">
            <mxRectangle width="30" height="30" as="alternateBounds" />
          </mxGeometry>
        </mxCell>
        <mxCell id="dEcd-b_ub2l0deUxEuGr-780" value="" style="endArrow=none;html=1;rounded=0;strokeWidth=2;entryX=0.288;entryY=0.024;entryDx=0;entryDy=0;entryPerimeter=0;exitX=0.786;exitY=1;exitDx=0;exitDy=0;exitPerimeter=0;" parent="1" source="dEcd-b_ub2l0deUxEuGr-704" target="dEcd-b_ub2l0deUxEuGr-814" edge="1">
          <mxGeometry width="50" height="50" relative="1" as="geometry">
            <mxPoint x="1480" y="754" as="sourcePoint" />
            <mxPoint x="1201" y="820" as="targetPoint" />
          </mxGeometry>
        </mxCell>
        <mxCell id="dEcd-b_ub2l0deUxEuGr-781" value="0,n" style="edgeLabel;html=1;align=center;verticalAlign=middle;resizable=0;points=[];" parent="dEcd-b_ub2l0deUxEuGr-780" vertex="1" connectable="0">
          <mxGeometry x="-0.6777" y="3" relative="1" as="geometry">
            <mxPoint as="offset" />
          </mxGeometry>
        </mxCell>
        <mxCell id="dEcd-b_ub2l0deUxEuGr-782" value="1,1" style="edgeLabel;html=1;align=center;verticalAlign=middle;resizable=0;points=[];" parent="dEcd-b_ub2l0deUxEuGr-780" vertex="1" connectable="0">
          <mxGeometry x="0.568" y="2" relative="1" as="geometry">
            <mxPoint as="offset" />
          </mxGeometry>
        </mxCell>
        <mxCell id="dEcd-b_ub2l0deUxEuGr-786" value="" style="endArrow=none;html=1;rounded=0;strokeWidth=2;entryX=0.455;entryY=0;entryDx=0;entryDy=0;entryPerimeter=0;exitX=0.214;exitY=1;exitDx=0;exitDy=0;exitPerimeter=0;" parent="1" source="dEcd-b_ub2l0deUxEuGr-704" target="dEcd-b_ub2l0deUxEuGr-726" edge="1">
          <mxGeometry width="50" height="50" relative="1" as="geometry">
            <mxPoint x="1540" y="792" as="sourcePoint" />
            <mxPoint x="1150" y="1300" as="targetPoint" />
          </mxGeometry>
        </mxCell>
        <mxCell id="dEcd-b_ub2l0deUxEuGr-787" value="1,n" style="edgeLabel;html=1;align=center;verticalAlign=middle;resizable=0;points=[];" parent="dEcd-b_ub2l0deUxEuGr-786" vertex="1" connectable="0">
          <mxGeometry x="-0.6777" y="3" relative="1" as="geometry">
            <mxPoint x="-1" as="offset" />
          </mxGeometry>
        </mxCell>
        <mxCell id="dEcd-b_ub2l0deUxEuGr-788" value="1,1" style="edgeLabel;html=1;align=center;verticalAlign=middle;resizable=0;points=[];" parent="dEcd-b_ub2l0deUxEuGr-786" vertex="1" connectable="0">
          <mxGeometry x="0.568" y="2" relative="1" as="geometry">
            <mxPoint x="-1" as="offset" />
          </mxGeometry>
        </mxCell>
        <mxCell id="dEcd-b_ub2l0deUxEuGr-792" value="" style="endArrow=none;html=1;rounded=0;strokeWidth=2;exitX=0.672;exitY=1.005;exitDx=0;exitDy=0;exitPerimeter=0;entryX=0.569;entryY=0.001;entryDx=0;entryDy=0;entryPerimeter=0;" parent="1" source="dEcd-b_ub2l0deUxEuGr-708" target="dEcd-b_ub2l0deUxEuGr-756" edge="1">
          <mxGeometry width="50" height="50" relative="1" as="geometry">
            <mxPoint x="2000" y="950" as="sourcePoint" />
            <mxPoint x="1850" y="1090" as="targetPoint" />
          </mxGeometry>
        </mxCell>
        <mxCell id="dEcd-b_ub2l0deUxEuGr-793" value="1,n" style="edgeLabel;html=1;align=center;verticalAlign=middle;resizable=0;points=[];" parent="dEcd-b_ub2l0deUxEuGr-792" vertex="1" connectable="0">
          <mxGeometry x="-0.6777" y="3" relative="1" as="geometry">
            <mxPoint x="-1" as="offset" />
          </mxGeometry>
        </mxCell>
        <mxCell id="dEcd-b_ub2l0deUxEuGr-794" value="1,1" style="edgeLabel;html=1;align=center;verticalAlign=middle;resizable=0;points=[];" parent="dEcd-b_ub2l0deUxEuGr-792" vertex="1" connectable="0">
          <mxGeometry x="0.568" y="2" relative="1" as="geometry">
            <mxPoint as="offset" />
          </mxGeometry>
        </mxCell>
        <mxCell id="dEcd-b_ub2l0deUxEuGr-795" value="" style="endArrow=none;html=1;rounded=0;entryX=0.5;entryY=0;entryDx=0;entryDy=0;strokeWidth=2;exitX=0.294;exitY=0.995;exitDx=0;exitDy=0;exitPerimeter=0;" parent="1" source="dEcd-b_ub2l0deUxEuGr-700" target="dEcd-b_ub2l0deUxEuGr-703" edge="1">
          <mxGeometry width="50" height="50" relative="1" as="geometry">
            <mxPoint x="1560" y="540" as="sourcePoint" />
            <mxPoint x="1611" y="889" as="targetPoint" />
          </mxGeometry>
        </mxCell>
        <mxCell id="dEcd-b_ub2l0deUxEuGr-796" value="0,1" style="edgeLabel;html=1;align=center;verticalAlign=middle;resizable=0;points=[];" parent="dEcd-b_ub2l0deUxEuGr-795" vertex="1" connectable="0">
          <mxGeometry x="-0.6777" y="3" relative="1" as="geometry">
            <mxPoint x="-10" as="offset" />
          </mxGeometry>
        </mxCell>
        <mxCell id="dEcd-b_ub2l0deUxEuGr-797" value="1,1" style="edgeLabel;html=1;align=center;verticalAlign=middle;resizable=0;points=[];" parent="dEcd-b_ub2l0deUxEuGr-795" vertex="1" connectable="0">
          <mxGeometry x="0.568" y="2" relative="1" as="geometry">
            <mxPoint x="-14" y="9" as="offset" />
          </mxGeometry>
        </mxCell>
        <mxCell id="dEcd-b_ub2l0deUxEuGr-798" value="" style="endArrow=none;html=1;rounded=0;entryX=0.412;entryY=-0.001;entryDx=0;entryDy=0;strokeWidth=2;entryPerimeter=0;exitX=0.804;exitY=0.995;exitDx=0;exitDy=0;exitPerimeter=0;" parent="1" source="dEcd-b_ub2l0deUxEuGr-700" target="dEcd-b_ub2l0deUxEuGr-707" edge="1">
          <mxGeometry width="50" height="50" relative="1" as="geometry">
            <mxPoint x="1757" y="588" as="sourcePoint" />
            <mxPoint x="1180" y="860" as="targetPoint" />
          </mxGeometry>
        </mxCell>
        <mxCell id="dEcd-b_ub2l0deUxEuGr-799" value="0,1" style="edgeLabel;html=1;align=center;verticalAlign=middle;resizable=0;points=[];" parent="dEcd-b_ub2l0deUxEuGr-798" vertex="1" connectable="0">
          <mxGeometry x="-0.6777" y="3" relative="1" as="geometry">
            <mxPoint y="3" as="offset" />
          </mxGeometry>
        </mxCell>
        <mxCell id="dEcd-b_ub2l0deUxEuGr-800" value="1,1" style="edgeLabel;html=1;align=center;verticalAlign=middle;resizable=0;points=[];" parent="dEcd-b_ub2l0deUxEuGr-798" vertex="1" connectable="0">
          <mxGeometry x="0.568" y="2" relative="1" as="geometry">
            <mxPoint x="6" y="11" as="offset" />
          </mxGeometry>
        </mxCell>
        <mxCell id="dEcd-b_ub2l0deUxEuGr-810" value="" style="group" parent="1" vertex="1" connectable="0">
          <mxGeometry x="1604" y="940" width="220" height="170" as="geometry" />
        </mxCell>
        <mxCell id="dEcd-b_ub2l0deUxEuGr-811" value="" style="group" parent="dEcd-b_ub2l0deUxEuGr-810" vertex="1" connectable="0">
          <mxGeometry width="220" height="170" as="geometry" />
        </mxCell>
        <mxCell id="dEcd-b_ub2l0deUxEuGr-812" value="FK" style="shape=partialRectangle;connectable=0;fillColor=none;top=0;left=0;bottom=0;right=0;fontStyle=1;overflow=hidden;whiteSpace=wrap;html=1;" parent="dEcd-b_ub2l0deUxEuGr-811" vertex="1">
          <mxGeometry y="110" width="30" height="30" as="geometry">
            <mxRectangle width="30" height="30" as="alternateBounds" />
          </mxGeometry>
        </mxCell>
        <mxCell id="dEcd-b_ub2l0deUxEuGr-813" value="FK" style="shape=partialRectangle;connectable=0;fillColor=none;top=0;left=0;bottom=0;right=0;fontStyle=1;overflow=hidden;whiteSpace=wrap;html=1;" parent="dEcd-b_ub2l0deUxEuGr-811" vertex="1">
          <mxGeometry y="140" width="30" height="30" as="geometry">
            <mxRectangle width="30" height="30" as="alternateBounds" />
          </mxGeometry>
        </mxCell>
        <mxCell id="dEcd-b_ub2l0deUxEuGr-814" value="Review" style="shape=table;startSize=20;container=1;collapsible=1;childLayout=tableLayout;fixedRows=1;rowLines=0;fontStyle=1;align=center;resizeLast=1;html=1;fillColor=#dae8fc;strokeColor=#6c8ebf;" parent="dEcd-b_ub2l0deUxEuGr-810" vertex="1">
          <mxGeometry width="220" height="170" as="geometry">
            <mxRectangle width="80" height="30" as="alternateBounds" />
          </mxGeometry>
        </mxCell>
        <mxCell id="dEcd-b_ub2l0deUxEuGr-815" value="" style="shape=tableRow;horizontal=0;startSize=0;swimlaneHead=0;swimlaneBody=0;fillColor=none;collapsible=0;dropTarget=0;points=[[0,0.5],[1,0.5]];portConstraint=eastwest;top=0;left=0;right=0;bottom=1;" parent="dEcd-b_ub2l0deUxEuGr-814" vertex="1">
          <mxGeometry y="20" width="220" height="30" as="geometry" />
        </mxCell>
        <mxCell id="dEcd-b_ub2l0deUxEuGr-816" value="PK" style="shape=partialRectangle;connectable=0;fillColor=none;top=0;left=0;bottom=0;right=0;fontStyle=1;overflow=hidden;whiteSpace=wrap;html=1;" parent="dEcd-b_ub2l0deUxEuGr-815" vertex="1">
          <mxGeometry width="30" height="30" as="geometry">
            <mxRectangle width="30" height="30" as="alternateBounds" />
          </mxGeometry>
        </mxCell>
        <mxCell id="dEcd-b_ub2l0deUxEuGr-817" value="review_id: INT" style="shape=partialRectangle;connectable=0;fillColor=none;top=0;left=0;bottom=0;right=0;align=left;spacingLeft=6;fontStyle=5;overflow=hidden;whiteSpace=wrap;html=1;" parent="dEcd-b_ub2l0deUxEuGr-815" vertex="1">
          <mxGeometry x="30" width="190" height="30" as="geometry">
            <mxRectangle width="190" height="30" as="alternateBounds" />
          </mxGeometry>
        </mxCell>
        <mxCell id="dEcd-b_ub2l0deUxEuGr-818" value="" style="shape=tableRow;horizontal=0;startSize=0;swimlaneHead=0;swimlaneBody=0;fillColor=none;collapsible=0;dropTarget=0;points=[[0,0.5],[1,0.5]];portConstraint=eastwest;top=0;left=0;right=0;bottom=0;" parent="dEcd-b_ub2l0deUxEuGr-814" vertex="1">
          <mxGeometry y="50" width="220" height="30" as="geometry" />
        </mxCell>
        <mxCell id="dEcd-b_ub2l0deUxEuGr-819" value="" style="shape=partialRectangle;connectable=0;fillColor=none;top=0;left=0;bottom=0;right=0;editable=1;overflow=hidden;whiteSpace=wrap;html=1;" parent="dEcd-b_ub2l0deUxEuGr-818" vertex="1">
          <mxGeometry width="30" height="30" as="geometry">
            <mxRectangle width="30" height="30" as="alternateBounds" />
          </mxGeometry>
        </mxCell>
        <mxCell id="dEcd-b_ub2l0deUxEuGr-820" value="rating: INT" style="shape=partialRectangle;connectable=0;fillColor=none;top=0;left=0;bottom=0;right=0;align=left;spacingLeft=6;overflow=hidden;whiteSpace=wrap;html=1;" parent="dEcd-b_ub2l0deUxEuGr-818" vertex="1">
          <mxGeometry x="30" width="190" height="30" as="geometry">
            <mxRectangle width="190" height="30" as="alternateBounds" />
          </mxGeometry>
        </mxCell>
        <mxCell id="dEcd-b_ub2l0deUxEuGr-821" value="" style="shape=tableRow;horizontal=0;startSize=0;swimlaneHead=0;swimlaneBody=0;fillColor=none;collapsible=0;dropTarget=0;points=[[0,0.5],[1,0.5]];portConstraint=eastwest;top=0;left=0;right=0;bottom=0;" parent="dEcd-b_ub2l0deUxEuGr-814" vertex="1">
          <mxGeometry y="80" width="220" height="30" as="geometry" />
        </mxCell>
        <mxCell id="dEcd-b_ub2l0deUxEuGr-822" value="" style="shape=partialRectangle;connectable=0;fillColor=none;top=0;left=0;bottom=0;right=0;editable=1;overflow=hidden;whiteSpace=wrap;html=1;" parent="dEcd-b_ub2l0deUxEuGr-821" vertex="1">
          <mxGeometry width="30" height="30" as="geometry">
            <mxRectangle width="30" height="30" as="alternateBounds" />
          </mxGeometry>
        </mxCell>
        <mxCell id="dEcd-b_ub2l0deUxEuGr-823" value="comment: STRING" style="shape=partialRectangle;connectable=0;fillColor=none;top=0;left=0;bottom=0;right=0;align=left;spacingLeft=6;overflow=hidden;whiteSpace=wrap;html=1;" parent="dEcd-b_ub2l0deUxEuGr-821" vertex="1">
          <mxGeometry x="30" width="190" height="30" as="geometry">
            <mxRectangle width="190" height="30" as="alternateBounds" />
          </mxGeometry>
        </mxCell>
        <mxCell id="dEcd-b_ub2l0deUxEuGr-824" value="" style="shape=tableRow;horizontal=0;startSize=0;swimlaneHead=0;swimlaneBody=0;fillColor=none;collapsible=0;dropTarget=0;points=[[0,0.5],[1,0.5]];portConstraint=eastwest;top=0;left=0;right=0;bottom=0;" parent="dEcd-b_ub2l0deUxEuGr-814" vertex="1">
          <mxGeometry y="110" width="220" height="30" as="geometry" />
        </mxCell>
        <mxCell id="dEcd-b_ub2l0deUxEuGr-825" value="" style="shape=partialRectangle;connectable=0;fillColor=none;top=0;left=0;bottom=0;right=0;editable=1;overflow=hidden;whiteSpace=wrap;html=1;" parent="dEcd-b_ub2l0deUxEuGr-824" vertex="1">
          <mxGeometry width="30" height="30" as="geometry">
            <mxRectangle width="30" height="30" as="alternateBounds" />
          </mxGeometry>
        </mxCell>
        <mxCell id="dEcd-b_ub2l0deUxEuGr-826" value="customer_id: INT&amp;nbsp;" style="shape=partialRectangle;connectable=0;fillColor=none;top=0;left=0;bottom=0;right=0;align=left;spacingLeft=6;overflow=hidden;whiteSpace=wrap;html=1;" parent="dEcd-b_ub2l0deUxEuGr-824" vertex="1">
          <mxGeometry x="30" width="190" height="30" as="geometry">
            <mxRectangle width="190" height="30" as="alternateBounds" />
          </mxGeometry>
        </mxCell>
        <mxCell id="dEcd-b_ub2l0deUxEuGr-827" value="" style="shape=tableRow;horizontal=0;startSize=0;swimlaneHead=0;swimlaneBody=0;fillColor=none;collapsible=0;dropTarget=0;points=[[0,0.5],[1,0.5]];portConstraint=eastwest;top=0;left=0;right=0;bottom=0;" parent="dEcd-b_ub2l0deUxEuGr-814" vertex="1">
          <mxGeometry y="140" width="220" height="30" as="geometry" />
        </mxCell>
        <mxCell id="dEcd-b_ub2l0deUxEuGr-828" value="" style="shape=partialRectangle;connectable=0;fillColor=none;top=0;left=0;bottom=0;right=0;editable=1;overflow=hidden;whiteSpace=wrap;html=1;" parent="dEcd-b_ub2l0deUxEuGr-827" vertex="1">
          <mxGeometry width="30" height="30" as="geometry">
            <mxRectangle width="30" height="30" as="alternateBounds" />
          </mxGeometry>
        </mxCell>
        <mxCell id="dEcd-b_ub2l0deUxEuGr-829" value="provider_id: INT" style="shape=partialRectangle;connectable=0;fillColor=none;top=0;left=0;bottom=0;right=0;align=left;spacingLeft=6;overflow=hidden;whiteSpace=wrap;html=1;" parent="dEcd-b_ub2l0deUxEuGr-827" vertex="1">
          <mxGeometry x="30" width="190" height="30" as="geometry">
            <mxRectangle width="190" height="30" as="alternateBounds" />
          </mxGeometry>
        </mxCell>
        <mxCell id="dEcd-b_ub2l0deUxEuGr-830" value="" style="group" parent="1" vertex="1" connectable="0">
          <mxGeometry x="2210" y="740" width="220" height="210" as="geometry" />
        </mxCell>
        <mxCell id="dEcd-b_ub2l0deUxEuGr-831" value="" style="group" parent="dEcd-b_ub2l0deUxEuGr-830" vertex="1" connectable="0">
          <mxGeometry width="220" height="210" as="geometry" />
        </mxCell>
        <mxCell id="dEcd-b_ub2l0deUxEuGr-832" value="FK" style="shape=partialRectangle;connectable=0;fillColor=none;top=0;left=0;bottom=0;right=0;fontStyle=1;overflow=hidden;whiteSpace=wrap;html=1;" parent="dEcd-b_ub2l0deUxEuGr-831" vertex="1">
          <mxGeometry y="150" width="30" height="30" as="geometry">
            <mxRectangle width="30" height="30" as="alternateBounds" />
          </mxGeometry>
        </mxCell>
        <mxCell id="dEcd-b_ub2l0deUxEuGr-833" value="FK" style="shape=partialRectangle;connectable=0;fillColor=none;top=0;left=0;bottom=0;right=0;fontStyle=1;overflow=hidden;whiteSpace=wrap;html=1;" parent="dEcd-b_ub2l0deUxEuGr-831" vertex="1">
          <mxGeometry y="180" width="30" height="30" as="geometry">
            <mxRectangle width="30" height="30" as="alternateBounds" />
          </mxGeometry>
        </mxCell>
        <mxCell id="dEcd-b_ub2l0deUxEuGr-834" value="Schedule" style="shape=table;startSize=30;container=1;collapsible=1;childLayout=tableLayout;fixedRows=1;rowLines=0;fontStyle=1;align=center;resizeLast=1;html=1;fillColor=#e1d5e7;strokeColor=#9673a6;" parent="dEcd-b_ub2l0deUxEuGr-830" vertex="1">
          <mxGeometry width="220" height="210" as="geometry" />
        </mxCell>
        <mxCell id="dEcd-b_ub2l0deUxEuGr-835" value="" style="shape=tableRow;horizontal=0;startSize=0;swimlaneHead=0;swimlaneBody=0;fillColor=none;collapsible=0;dropTarget=0;points=[[0,0.5],[1,0.5]];portConstraint=eastwest;top=0;left=0;right=0;bottom=1;" parent="dEcd-b_ub2l0deUxEuGr-834" vertex="1">
          <mxGeometry y="30" width="220" height="30" as="geometry" />
        </mxCell>
        <mxCell id="dEcd-b_ub2l0deUxEuGr-836" value="PK" style="shape=partialRectangle;connectable=0;fillColor=none;top=0;left=0;bottom=0;right=0;fontStyle=1;overflow=hidden;whiteSpace=wrap;html=1;" parent="dEcd-b_ub2l0deUxEuGr-835" vertex="1">
          <mxGeometry width="30" height="30" as="geometry">
            <mxRectangle width="30" height="30" as="alternateBounds" />
          </mxGeometry>
        </mxCell>
        <mxCell id="dEcd-b_ub2l0deUxEuGr-837" value="schedule_id: INT" style="shape=partialRectangle;connectable=0;fillColor=none;top=0;left=0;bottom=0;right=0;align=left;spacingLeft=6;fontStyle=5;overflow=hidden;whiteSpace=wrap;html=1;" parent="dEcd-b_ub2l0deUxEuGr-835" vertex="1">
          <mxGeometry x="30" width="190" height="30" as="geometry">
            <mxRectangle width="190" height="30" as="alternateBounds" />
          </mxGeometry>
        </mxCell>
        <mxCell id="dEcd-b_ub2l0deUxEuGr-838" value="" style="shape=tableRow;horizontal=0;startSize=0;swimlaneHead=0;swimlaneBody=0;fillColor=none;collapsible=0;dropTarget=0;points=[[0,0.5],[1,0.5]];portConstraint=eastwest;top=0;left=0;right=0;bottom=0;" parent="dEcd-b_ub2l0deUxEuGr-834" vertex="1">
          <mxGeometry y="60" width="220" height="30" as="geometry" />
        </mxCell>
        <mxCell id="dEcd-b_ub2l0deUxEuGr-839" value="" style="shape=partialRectangle;connectable=0;fillColor=none;top=0;left=0;bottom=0;right=0;editable=1;overflow=hidden;whiteSpace=wrap;html=1;" parent="dEcd-b_ub2l0deUxEuGr-838" vertex="1">
          <mxGeometry width="30" height="30" as="geometry">
            <mxRectangle width="30" height="30" as="alternateBounds" />
          </mxGeometry>
        </mxCell>
        <mxCell id="dEcd-b_ub2l0deUxEuGr-840" value="&lt;span style=&quot;text-wrap-mode: nowrap;&quot;&gt;dateAvailability: DATE&lt;/span&gt;" style="shape=partialRectangle;connectable=0;fillColor=none;top=0;left=0;bottom=0;right=0;align=left;spacingLeft=6;overflow=hidden;whiteSpace=wrap;html=1;" parent="dEcd-b_ub2l0deUxEuGr-838" vertex="1">
          <mxGeometry x="30" width="190" height="30" as="geometry">
            <mxRectangle width="190" height="30" as="alternateBounds" />
          </mxGeometry>
        </mxCell>
        <mxCell id="dEcd-b_ub2l0deUxEuGr-841" value="" style="shape=tableRow;horizontal=0;startSize=0;swimlaneHead=0;swimlaneBody=0;fillColor=none;collapsible=0;dropTarget=0;points=[[0,0.5],[1,0.5]];portConstraint=eastwest;top=0;left=0;right=0;bottom=0;" parent="dEcd-b_ub2l0deUxEuGr-834" vertex="1">
          <mxGeometry y="90" width="220" height="30" as="geometry" />
        </mxCell>
        <mxCell id="dEcd-b_ub2l0deUxEuGr-842" value="" style="shape=partialRectangle;connectable=0;fillColor=none;top=0;left=0;bottom=0;right=0;editable=1;overflow=hidden;whiteSpace=wrap;html=1;" parent="dEcd-b_ub2l0deUxEuGr-841" vertex="1">
          <mxGeometry width="30" height="30" as="geometry">
            <mxRectangle width="30" height="30" as="alternateBounds" />
          </mxGeometry>
        </mxCell>
        <mxCell id="dEcd-b_ub2l0deUxEuGr-843" value="&lt;span style=&quot;text-wrap-mode: nowrap;&quot;&gt;startTime: TIME&lt;/span&gt;" style="shape=partialRectangle;connectable=0;fillColor=none;top=0;left=0;bottom=0;right=0;align=left;spacingLeft=6;overflow=hidden;whiteSpace=wrap;html=1;" parent="dEcd-b_ub2l0deUxEuGr-841" vertex="1">
          <mxGeometry x="30" width="190" height="30" as="geometry">
            <mxRectangle width="190" height="30" as="alternateBounds" />
          </mxGeometry>
        </mxCell>
        <mxCell id="dEcd-b_ub2l0deUxEuGr-844" value="" style="shape=tableRow;horizontal=0;startSize=0;swimlaneHead=0;swimlaneBody=0;fillColor=none;collapsible=0;dropTarget=0;points=[[0,0.5],[1,0.5]];portConstraint=eastwest;top=0;left=0;right=0;bottom=0;" parent="dEcd-b_ub2l0deUxEuGr-834" vertex="1">
          <mxGeometry y="120" width="220" height="30" as="geometry" />
        </mxCell>
        <mxCell id="dEcd-b_ub2l0deUxEuGr-845" value="" style="shape=partialRectangle;connectable=0;fillColor=none;top=0;left=0;bottom=0;right=0;editable=1;overflow=hidden;whiteSpace=wrap;html=1;" parent="dEcd-b_ub2l0deUxEuGr-844" vertex="1">
          <mxGeometry width="30" height="30" as="geometry">
            <mxRectangle width="30" height="30" as="alternateBounds" />
          </mxGeometry>
        </mxCell>
        <mxCell id="dEcd-b_ub2l0deUxEuGr-846" value="&lt;span style=&quot;text-wrap-mode: nowrap;&quot;&gt;endTime: TIME&lt;/span&gt;" style="shape=partialRectangle;connectable=0;fillColor=none;top=0;left=0;bottom=0;right=0;align=left;spacingLeft=6;overflow=hidden;whiteSpace=wrap;html=1;" parent="dEcd-b_ub2l0deUxEuGr-844" vertex="1">
          <mxGeometry x="30" width="190" height="30" as="geometry">
            <mxRectangle width="190" height="30" as="alternateBounds" />
          </mxGeometry>
        </mxCell>
        <mxCell id="dEcd-b_ub2l0deUxEuGr-847" value="" style="shape=tableRow;horizontal=0;startSize=0;swimlaneHead=0;swimlaneBody=0;fillColor=none;collapsible=0;dropTarget=0;points=[[0,0.5],[1,0.5]];portConstraint=eastwest;top=0;left=0;right=0;bottom=0;" parent="dEcd-b_ub2l0deUxEuGr-834" vertex="1">
          <mxGeometry y="150" width="220" height="30" as="geometry" />
        </mxCell>
        <mxCell id="dEcd-b_ub2l0deUxEuGr-848" value="" style="shape=partialRectangle;connectable=0;fillColor=none;top=0;left=0;bottom=0;right=0;editable=1;overflow=hidden;whiteSpace=wrap;html=1;" parent="dEcd-b_ub2l0deUxEuGr-847" vertex="1">
          <mxGeometry width="30" height="30" as="geometry">
            <mxRectangle width="30" height="30" as="alternateBounds" />
          </mxGeometry>
        </mxCell>
        <mxCell id="dEcd-b_ub2l0deUxEuGr-849" value="&lt;span style=&quot;text-wrap-mode: nowrap;&quot;&gt;provider_id: INT&lt;/span&gt;" style="shape=partialRectangle;connectable=0;fillColor=none;top=0;left=0;bottom=0;right=0;align=left;spacingLeft=6;overflow=hidden;whiteSpace=wrap;html=1;" parent="dEcd-b_ub2l0deUxEuGr-847" vertex="1">
          <mxGeometry x="30" width="190" height="30" as="geometry">
            <mxRectangle width="190" height="30" as="alternateBounds" />
          </mxGeometry>
        </mxCell>
        <mxCell id="dEcd-b_ub2l0deUxEuGr-850" value="" style="shape=tableRow;horizontal=0;startSize=0;swimlaneHead=0;swimlaneBody=0;fillColor=none;collapsible=0;dropTarget=0;points=[[0,0.5],[1,0.5]];portConstraint=eastwest;top=0;left=0;right=0;bottom=0;" parent="dEcd-b_ub2l0deUxEuGr-834" vertex="1">
          <mxGeometry y="180" width="220" height="30" as="geometry" />
        </mxCell>
        <mxCell id="dEcd-b_ub2l0deUxEuGr-851" value="" style="shape=partialRectangle;connectable=0;fillColor=none;top=0;left=0;bottom=0;right=0;editable=1;overflow=hidden;whiteSpace=wrap;html=1;" parent="dEcd-b_ub2l0deUxEuGr-850" vertex="1">
          <mxGeometry width="30" height="30" as="geometry">
            <mxRectangle width="30" height="30" as="alternateBounds" />
          </mxGeometry>
        </mxCell>
        <mxCell id="dEcd-b_ub2l0deUxEuGr-852" value="&lt;span style=&quot;text-wrap-mode: nowrap;&quot;&gt;service_id: INT&lt;/span&gt;" style="shape=partialRectangle;connectable=0;fillColor=none;top=0;left=0;bottom=0;right=0;align=left;spacingLeft=6;overflow=hidden;whiteSpace=wrap;html=1;" parent="dEcd-b_ub2l0deUxEuGr-850" vertex="1">
          <mxGeometry x="30" width="190" height="30" as="geometry">
            <mxRectangle width="190" height="30" as="alternateBounds" />
          </mxGeometry>
        </mxCell>
        <mxCell id="dEcd-b_ub2l0deUxEuGr-853" value="" style="endArrow=none;html=1;rounded=0;strokeWidth=2;exitX=1;exitY=0.5;exitDx=0;exitDy=0;entryX=0;entryY=0.5;entryDx=0;entryDy=0;" parent="1" source="dEcd-b_ub2l0deUxEuGr-708" target="dEcd-b_ub2l0deUxEuGr-838" edge="1">
          <mxGeometry width="50" height="50" relative="1" as="geometry">
            <mxPoint x="1879" y="1351" as="sourcePoint" />
            <mxPoint x="2035" y="1010" as="targetPoint" />
          </mxGeometry>
        </mxCell>
        <mxCell id="dEcd-b_ub2l0deUxEuGr-854" value="1,n" style="edgeLabel;html=1;align=center;verticalAlign=middle;resizable=0;points=[];" parent="dEcd-b_ub2l0deUxEuGr-853" vertex="1" connectable="0">
          <mxGeometry x="-0.6777" y="3" relative="1" as="geometry">
            <mxPoint x="-1" as="offset" />
          </mxGeometry>
        </mxCell>
        <mxCell id="dEcd-b_ub2l0deUxEuGr-855" value="1,1" style="edgeLabel;html=1;align=center;verticalAlign=middle;resizable=0;points=[];" parent="dEcd-b_ub2l0deUxEuGr-853" vertex="1" connectable="0">
          <mxGeometry x="0.568" y="2" relative="1" as="geometry">
            <mxPoint as="offset" />
          </mxGeometry>
        </mxCell>
        <mxCell id="dEcd-b_ub2l0deUxEuGr-856" value="" style="endArrow=none;html=1;rounded=0;strokeWidth=2;exitX=1.004;exitY=0.067;exitDx=0;exitDy=0;exitPerimeter=0;entryX=0.002;entryY=0.024;entryDx=0;entryDy=0;entryPerimeter=0;" parent="1" source="dEcd-b_ub2l0deUxEuGr-712" target="dEcd-b_ub2l0deUxEuGr-688" edge="1">
          <mxGeometry width="50" height="50" relative="1" as="geometry">
            <mxPoint x="1655" y="600" as="sourcePoint" />
            <mxPoint x="1581" y="442" as="targetPoint" />
          </mxGeometry>
        </mxCell>
        <mxCell id="dEcd-b_ub2l0deUxEuGr-857" value="0,n" style="edgeLabel;html=1;align=center;verticalAlign=middle;resizable=0;points=[];" parent="dEcd-b_ub2l0deUxEuGr-856" vertex="1" connectable="0">
          <mxGeometry x="-0.6777" y="3" relative="1" as="geometry">
            <mxPoint as="offset" />
          </mxGeometry>
        </mxCell>
        <mxCell id="dEcd-b_ub2l0deUxEuGr-858" value="0,1" style="edgeLabel;html=1;align=center;verticalAlign=middle;resizable=0;points=[];" parent="dEcd-b_ub2l0deUxEuGr-856" vertex="1" connectable="0">
          <mxGeometry x="0.568" y="2" relative="1" as="geometry">
            <mxPoint as="offset" />
          </mxGeometry>
        </mxCell>
        <mxCell id="dEcd-b_ub2l0deUxEuGr-865" value="" style="endArrow=none;html=1;rounded=0;strokeWidth=2;exitX=-0.002;exitY=0.71;exitDx=0;exitDy=0;exitPerimeter=0;entryX=1;entryY=0.5;entryDx=0;entryDy=0;" parent="1" source="dEcd-b_ub2l0deUxEuGr-766" target="dEcd-b_ub2l0deUxEuGr-739" edge="1">
          <mxGeometry width="50" height="50" relative="1" as="geometry">
            <mxPoint x="1800" y="1119" as="sourcePoint" />
            <mxPoint x="1591" y="1125" as="targetPoint" />
          </mxGeometry>
        </mxCell>
        <mxCell id="dEcd-b_ub2l0deUxEuGr-866" value="1,n" style="edgeLabel;html=1;align=center;verticalAlign=middle;resizable=0;points=[];" parent="dEcd-b_ub2l0deUxEuGr-865" vertex="1" connectable="0">
          <mxGeometry x="-0.6777" y="3" relative="1" as="geometry">
            <mxPoint x="-1" as="offset" />
          </mxGeometry>
        </mxCell>
        <mxCell id="dEcd-b_ub2l0deUxEuGr-867" value="1,1" style="edgeLabel;html=1;align=center;verticalAlign=middle;resizable=0;points=[];" parent="dEcd-b_ub2l0deUxEuGr-865" vertex="1" connectable="0">
          <mxGeometry x="0.568" y="2" relative="1" as="geometry">
            <mxPoint as="offset" />
          </mxGeometry>
        </mxCell>
        <mxCell id="dEcd-b_ub2l0deUxEuGr-871" value="" style="endArrow=none;html=1;rounded=0;strokeWidth=2;exitX=0.194;exitY=1.008;exitDx=0;exitDy=0;exitPerimeter=0;" parent="1" source="dEcd-b_ub2l0deUxEuGr-708" target="dEcd-b_ub2l0deUxEuGr-814" edge="1">
          <mxGeometry width="50" height="50" relative="1" as="geometry">
            <mxPoint x="1598" y="802" as="sourcePoint" />
            <mxPoint x="1653" y="914" as="targetPoint" />
          </mxGeometry>
        </mxCell>
        <mxCell id="dEcd-b_ub2l0deUxEuGr-872" value="0,n" style="edgeLabel;html=1;align=center;verticalAlign=middle;resizable=0;points=[];" parent="dEcd-b_ub2l0deUxEuGr-871" vertex="1" connectable="0">
          <mxGeometry x="-0.6777" y="3" relative="1" as="geometry">
            <mxPoint x="-2" as="offset" />
          </mxGeometry>
        </mxCell>
        <mxCell id="dEcd-b_ub2l0deUxEuGr-873" value="1,1" style="edgeLabel;html=1;align=center;verticalAlign=middle;resizable=0;points=[];" parent="dEcd-b_ub2l0deUxEuGr-871" vertex="1" connectable="0">
          <mxGeometry x="0.568" y="2" relative="1" as="geometry">
            <mxPoint x="-14" y="11" as="offset" />
          </mxGeometry>
        </mxCell>
        <mxCell id="dEcd-b_ub2l0deUxEuGr-877" value="" style="endArrow=none;html=1;rounded=0;strokeWidth=2;entryX=1.004;entryY=0.732;entryDx=0;entryDy=0;entryPerimeter=0;exitX=0.001;exitY=0.4;exitDx=0;exitDy=0;exitPerimeter=0;" parent="1" source="dEcd-b_ub2l0deUxEuGr-719" target="dEcd-b_ub2l0deUxEuGr-766" edge="1">
          <mxGeometry width="50" height="50" relative="1" as="geometry">
            <mxPoint x="2280" y="1160" as="sourcePoint" />
            <mxPoint x="2398" y="940" as="targetPoint" />
          </mxGeometry>
        </mxCell>
        <mxCell id="dEcd-b_ub2l0deUxEuGr-878" value="1,n" style="edgeLabel;html=1;align=center;verticalAlign=middle;resizable=0;points=[];" parent="dEcd-b_ub2l0deUxEuGr-877" vertex="1" connectable="0">
          <mxGeometry x="-0.6777" y="3" relative="1" as="geometry">
            <mxPoint x="-1" as="offset" />
          </mxGeometry>
        </mxCell>
        <mxCell id="dEcd-b_ub2l0deUxEuGr-879" value="1,1" style="edgeLabel;html=1;align=center;verticalAlign=middle;resizable=0;points=[];" parent="dEcd-b_ub2l0deUxEuGr-877" vertex="1" connectable="0">
          <mxGeometry x="0.568" y="2" relative="1" as="geometry">
            <mxPoint as="offset" />
          </mxGeometry>
        </mxCell>
        <mxCell id="dEcd-b_ub2l0deUxEuGr-883" value="" style="endArrow=none;html=1;rounded=0;strokeWidth=2;edgeStyle=orthogonalEdgeStyle;elbow=vertical;entryX=0.345;entryY=1.04;entryDx=0;entryDy=0;entryPerimeter=0;" parent="1" source="dEcd-b_ub2l0deUxEuGr-707" target="dEcd-b_ub2l0deUxEuGr-748" edge="1">
          <mxGeometry width="50" height="50" relative="1" as="geometry">
            <mxPoint x="1900" y="720" as="sourcePoint" />
            <mxPoint x="2155.2" y="1339.3200000000002" as="targetPoint" />
            <Array as="points">
              <mxPoint x="2610" y="710" />
              <mxPoint x="2610" y="1350" />
              <mxPoint x="1376" y="1350" />
            </Array>
          </mxGeometry>
        </mxCell>
        <mxCell id="dEcd-b_ub2l0deUxEuGr-884" value="1,n" style="edgeLabel;html=1;align=center;verticalAlign=middle;resizable=0;points=[];" parent="dEcd-b_ub2l0deUxEuGr-883" vertex="1" connectable="0">
          <mxGeometry x="-0.6777" y="3" relative="1" as="geometry">
            <mxPoint x="-392" y="3" as="offset" />
          </mxGeometry>
        </mxCell>
        <mxCell id="dEcd-b_ub2l0deUxEuGr-885" value="1,1" style="edgeLabel;html=1;align=center;verticalAlign=middle;resizable=0;points=[];" parent="dEcd-b_ub2l0deUxEuGr-883" vertex="1" connectable="0">
          <mxGeometry x="0.568" y="2" relative="1" as="geometry">
            <mxPoint x="-461" y="-2" as="offset" />
          </mxGeometry>
        </mxCell>
        <mxCell id="dEcd-b_ub2l0deUxEuGr-886" value="" style="endArrow=none;html=1;rounded=0;strokeWidth=2;edgeStyle=orthogonalEdgeStyle;elbow=vertical;entryX=0.861;entryY=1.004;entryDx=0;entryDy=0;entryPerimeter=0;" parent="1" target="dEcd-b_ub2l0deUxEuGr-748" edge="1">
          <mxGeometry width="50" height="50" relative="1" as="geometry">
            <mxPoint x="2430" y="840" as="sourcePoint" />
            <mxPoint x="1490" y="1270" as="targetPoint" />
            <Array as="points">
              <mxPoint x="2430" y="840" />
              <mxPoint x="2550" y="840" />
              <mxPoint x="2550" y="1300" />
              <mxPoint x="1489" y="1300" />
            </Array>
          </mxGeometry>
        </mxCell>
        <mxCell id="dEcd-b_ub2l0deUxEuGr-887" value="1,n" style="edgeLabel;html=1;align=center;verticalAlign=middle;resizable=0;points=[];" parent="dEcd-b_ub2l0deUxEuGr-886" vertex="1" connectable="0">
          <mxGeometry x="-0.6777" y="3" relative="1" as="geometry">
            <mxPoint x="-93" y="-150" as="offset" />
          </mxGeometry>
        </mxCell>
        <mxCell id="dEcd-b_ub2l0deUxEuGr-888" value="1,1" style="edgeLabel;html=1;align=center;verticalAlign=middle;resizable=0;points=[];" parent="dEcd-b_ub2l0deUxEuGr-886" vertex="1" connectable="0">
          <mxGeometry x="0.568" y="2" relative="1" as="geometry">
            <mxPoint x="-276" as="offset" />
          </mxGeometry>
        </mxCell>
        <mxCell id="sJkyd0CvdRwkuKm5bAiC-1" value="Payment" style="shape=table;startSize=30;container=1;collapsible=1;childLayout=tableLayout;fixedRows=1;rowLines=0;fontStyle=1;align=center;resizeLast=1;html=1;fillColor=#dae8fc;strokeColor=#6c8ebf;" vertex="1" parent="1">
          <mxGeometry x="960" y="770" width="220" height="250" as="geometry" />
        </mxCell>
        <mxCell id="sJkyd0CvdRwkuKm5bAiC-2" value="" style="shape=tableRow;horizontal=0;startSize=0;swimlaneHead=0;swimlaneBody=0;fillColor=none;collapsible=0;dropTarget=0;points=[[0,0.5],[1,0.5]];portConstraint=eastwest;top=0;left=0;right=0;bottom=1;" vertex="1" parent="sJkyd0CvdRwkuKm5bAiC-1">
          <mxGeometry y="30" width="220" height="30" as="geometry" />
        </mxCell>
        <mxCell id="sJkyd0CvdRwkuKm5bAiC-3" value="PK" style="shape=partialRectangle;connectable=0;fillColor=none;top=0;left=0;bottom=0;right=0;fontStyle=1;overflow=hidden;whiteSpace=wrap;html=1;" vertex="1" parent="sJkyd0CvdRwkuKm5bAiC-2">
          <mxGeometry width="30" height="30" as="geometry">
            <mxRectangle width="30" height="30" as="alternateBounds" />
          </mxGeometry>
        </mxCell>
        <mxCell id="sJkyd0CvdRwkuKm5bAiC-4" value="payment_id: INT" style="shape=partialRectangle;connectable=0;fillColor=none;top=0;left=0;bottom=0;right=0;align=left;spacingLeft=6;fontStyle=5;overflow=hidden;whiteSpace=wrap;html=1;" vertex="1" parent="sJkyd0CvdRwkuKm5bAiC-2">
          <mxGeometry x="30" width="190" height="30" as="geometry">
            <mxRectangle width="190" height="30" as="alternateBounds" />
          </mxGeometry>
        </mxCell>
        <mxCell id="sJkyd0CvdRwkuKm5bAiC-5" value="" style="shape=tableRow;horizontal=0;startSize=0;swimlaneHead=0;swimlaneBody=0;fillColor=none;collapsible=0;dropTarget=0;points=[[0,0.5],[1,0.5]];portConstraint=eastwest;top=0;left=0;right=0;bottom=0;" vertex="1" parent="sJkyd0CvdRwkuKm5bAiC-1">
          <mxGeometry y="60" width="220" height="40" as="geometry" />
        </mxCell>
        <mxCell id="sJkyd0CvdRwkuKm5bAiC-6" value="" style="shape=partialRectangle;connectable=0;fillColor=none;top=0;left=0;bottom=0;right=0;editable=1;overflow=hidden;whiteSpace=wrap;html=1;" vertex="1" parent="sJkyd0CvdRwkuKm5bAiC-5">
          <mxGeometry width="30" height="40" as="geometry">
            <mxRectangle width="30" height="40" as="alternateBounds" />
          </mxGeometry>
        </mxCell>
        <mxCell id="sJkyd0CvdRwkuKm5bAiC-7" value="amount: DOUBLE" style="shape=partialRectangle;connectable=0;fillColor=none;top=0;left=0;bottom=0;right=0;align=left;spacingLeft=6;overflow=hidden;whiteSpace=wrap;html=1;" vertex="1" parent="sJkyd0CvdRwkuKm5bAiC-5">
          <mxGeometry x="30" width="190" height="40" as="geometry">
            <mxRectangle width="190" height="40" as="alternateBounds" />
          </mxGeometry>
        </mxCell>
        <mxCell id="sJkyd0CvdRwkuKm5bAiC-8" value="" style="shape=tableRow;horizontal=0;startSize=0;swimlaneHead=0;swimlaneBody=0;fillColor=none;collapsible=0;dropTarget=0;points=[[0,0.5],[1,0.5]];portConstraint=eastwest;top=0;left=0;right=0;bottom=0;" vertex="1" parent="sJkyd0CvdRwkuKm5bAiC-1">
          <mxGeometry y="100" width="220" height="30" as="geometry" />
        </mxCell>
        <mxCell id="sJkyd0CvdRwkuKm5bAiC-9" value="" style="shape=partialRectangle;connectable=0;fillColor=none;top=0;left=0;bottom=0;right=0;editable=1;overflow=hidden;whiteSpace=wrap;html=1;" vertex="1" parent="sJkyd0CvdRwkuKm5bAiC-8">
          <mxGeometry width="30" height="30" as="geometry">
            <mxRectangle width="30" height="30" as="alternateBounds" />
          </mxGeometry>
        </mxCell>
        <mxCell id="sJkyd0CvdRwkuKm5bAiC-10" value="paymentMethod: STRING" style="shape=partialRectangle;connectable=0;fillColor=none;top=0;left=0;bottom=0;right=0;align=left;spacingLeft=6;overflow=hidden;whiteSpace=wrap;html=1;" vertex="1" parent="sJkyd0CvdRwkuKm5bAiC-8">
          <mxGeometry x="30" width="190" height="30" as="geometry">
            <mxRectangle width="190" height="30" as="alternateBounds" />
          </mxGeometry>
        </mxCell>
        <mxCell id="sJkyd0CvdRwkuKm5bAiC-11" value="" style="shape=tableRow;horizontal=0;startSize=0;swimlaneHead=0;swimlaneBody=0;fillColor=none;collapsible=0;dropTarget=0;points=[[0,0.5],[1,0.5]];portConstraint=eastwest;top=0;left=0;right=0;bottom=0;" vertex="1" parent="sJkyd0CvdRwkuKm5bAiC-1">
          <mxGeometry y="130" width="220" height="30" as="geometry" />
        </mxCell>
        <mxCell id="sJkyd0CvdRwkuKm5bAiC-12" value="" style="shape=partialRectangle;connectable=0;fillColor=none;top=0;left=0;bottom=0;right=0;editable=1;overflow=hidden;whiteSpace=wrap;html=1;" vertex="1" parent="sJkyd0CvdRwkuKm5bAiC-11">
          <mxGeometry width="30" height="30" as="geometry">
            <mxRectangle width="30" height="30" as="alternateBounds" />
          </mxGeometry>
        </mxCell>
        <mxCell id="sJkyd0CvdRwkuKm5bAiC-13" value="paymentDate: DATE" style="shape=partialRectangle;connectable=0;fillColor=none;top=0;left=0;bottom=0;right=0;align=left;spacingLeft=6;overflow=hidden;whiteSpace=wrap;html=1;" vertex="1" parent="sJkyd0CvdRwkuKm5bAiC-11">
          <mxGeometry x="30" width="190" height="30" as="geometry">
            <mxRectangle width="190" height="30" as="alternateBounds" />
          </mxGeometry>
        </mxCell>
        <mxCell id="sJkyd0CvdRwkuKm5bAiC-14" value="" style="shape=tableRow;horizontal=0;startSize=0;swimlaneHead=0;swimlaneBody=0;fillColor=none;collapsible=0;dropTarget=0;points=[[0,0.5],[1,0.5]];portConstraint=eastwest;top=0;left=0;right=0;bottom=0;" vertex="1" parent="sJkyd0CvdRwkuKm5bAiC-1">
          <mxGeometry y="160" width="220" height="30" as="geometry" />
        </mxCell>
        <mxCell id="sJkyd0CvdRwkuKm5bAiC-15" value="" style="shape=partialRectangle;connectable=0;fillColor=none;top=0;left=0;bottom=0;right=0;editable=1;overflow=hidden;whiteSpace=wrap;html=1;" vertex="1" parent="sJkyd0CvdRwkuKm5bAiC-14">
          <mxGeometry width="30" height="30" as="geometry">
            <mxRectangle width="30" height="30" as="alternateBounds" />
          </mxGeometry>
        </mxCell>
        <mxCell id="sJkyd0CvdRwkuKm5bAiC-16" value="status: ENUM" style="shape=partialRectangle;connectable=0;fillColor=none;top=0;left=0;bottom=0;right=0;align=left;spacingLeft=6;overflow=hidden;whiteSpace=wrap;html=1;" vertex="1" parent="sJkyd0CvdRwkuKm5bAiC-14">
          <mxGeometry x="30" width="190" height="30" as="geometry">
            <mxRectangle width="190" height="30" as="alternateBounds" />
          </mxGeometry>
        </mxCell>
        <mxCell id="sJkyd0CvdRwkuKm5bAiC-20" value="" style="shape=tableRow;horizontal=0;startSize=0;swimlaneHead=0;swimlaneBody=0;fillColor=none;collapsible=0;dropTarget=0;points=[[0,0.5],[1,0.5]];portConstraint=eastwest;top=0;left=0;right=0;bottom=0;" vertex="1" parent="sJkyd0CvdRwkuKm5bAiC-1">
          <mxGeometry y="190" width="220" height="30" as="geometry" />
        </mxCell>
        <mxCell id="sJkyd0CvdRwkuKm5bAiC-21" value="" style="shape=partialRectangle;connectable=0;fillColor=none;top=0;left=0;bottom=0;right=0;editable=1;overflow=hidden;whiteSpace=wrap;html=1;" vertex="1" parent="sJkyd0CvdRwkuKm5bAiC-20">
          <mxGeometry width="30" height="30" as="geometry">
            <mxRectangle width="30" height="30" as="alternateBounds" />
          </mxGeometry>
        </mxCell>
        <mxCell id="sJkyd0CvdRwkuKm5bAiC-22" value="customer_id: INT" style="shape=partialRectangle;connectable=0;fillColor=none;top=0;left=0;bottom=0;right=0;align=left;spacingLeft=6;overflow=hidden;whiteSpace=wrap;html=1;" vertex="1" parent="sJkyd0CvdRwkuKm5bAiC-20">
          <mxGeometry x="30" width="190" height="30" as="geometry">
            <mxRectangle width="190" height="30" as="alternateBounds" />
          </mxGeometry>
        </mxCell>
        <mxCell id="sJkyd0CvdRwkuKm5bAiC-23" value="" style="shape=tableRow;horizontal=0;startSize=0;swimlaneHead=0;swimlaneBody=0;fillColor=none;collapsible=0;dropTarget=0;points=[[0,0.5],[1,0.5]];portConstraint=eastwest;top=0;left=0;right=0;bottom=0;" vertex="1" parent="sJkyd0CvdRwkuKm5bAiC-1">
          <mxGeometry y="220" width="220" height="30" as="geometry" />
        </mxCell>
        <mxCell id="sJkyd0CvdRwkuKm5bAiC-24" value="" style="shape=partialRectangle;connectable=0;fillColor=none;top=0;left=0;bottom=0;right=0;editable=1;overflow=hidden;whiteSpace=wrap;html=1;" vertex="1" parent="sJkyd0CvdRwkuKm5bAiC-23">
          <mxGeometry width="30" height="30" as="geometry">
            <mxRectangle width="30" height="30" as="alternateBounds" />
          </mxGeometry>
        </mxCell>
        <mxCell id="sJkyd0CvdRwkuKm5bAiC-25" value="booking_id: INT" style="shape=partialRectangle;connectable=0;fillColor=none;top=0;left=0;bottom=0;right=0;align=left;spacingLeft=6;overflow=hidden;whiteSpace=wrap;html=1;" vertex="1" parent="sJkyd0CvdRwkuKm5bAiC-23">
          <mxGeometry x="30" width="190" height="30" as="geometry">
            <mxRectangle width="190" height="30" as="alternateBounds" />
          </mxGeometry>
        </mxCell>
        <mxCell id="sJkyd0CvdRwkuKm5bAiC-26" value="" style="endArrow=none;html=1;rounded=0;strokeWidth=2;entryX=0.984;entryY=-0.04;entryDx=0;entryDy=0;entryPerimeter=0;exitX=0;exitY=0.25;exitDx=0;exitDy=0;" edge="1" parent="1" source="dEcd-b_ub2l0deUxEuGr-703" target="sJkyd0CvdRwkuKm5bAiC-2">
          <mxGeometry width="50" height="50" relative="1" as="geometry">
            <mxPoint x="1528" y="785" as="sourcePoint" />
            <mxPoint x="1410" y="995" as="targetPoint" />
          </mxGeometry>
        </mxCell>
        <mxCell id="sJkyd0CvdRwkuKm5bAiC-27" value="1,n" style="edgeLabel;html=1;align=center;verticalAlign=middle;resizable=0;points=[];" vertex="1" connectable="0" parent="sJkyd0CvdRwkuKm5bAiC-26">
          <mxGeometry x="-0.6777" y="3" relative="1" as="geometry">
            <mxPoint x="-1" as="offset" />
          </mxGeometry>
        </mxCell>
        <mxCell id="sJkyd0CvdRwkuKm5bAiC-28" value="1,1" style="edgeLabel;html=1;align=center;verticalAlign=middle;resizable=0;points=[];" vertex="1" connectable="0" parent="sJkyd0CvdRwkuKm5bAiC-26">
          <mxGeometry x="0.568" y="2" relative="1" as="geometry">
            <mxPoint x="-1" as="offset" />
          </mxGeometry>
        </mxCell>
        <mxCell id="sJkyd0CvdRwkuKm5bAiC-29" value="" style="endArrow=none;html=1;rounded=0;strokeWidth=2;entryX=0.401;entryY=0.985;entryDx=0;entryDy=0;entryPerimeter=0;exitX=0;exitY=0.5;exitDx=0;exitDy=0;" edge="1" parent="1" source="dEcd-b_ub2l0deUxEuGr-736" target="sJkyd0CvdRwkuKm5bAiC-23">
          <mxGeometry width="50" height="50" relative="1" as="geometry">
            <mxPoint x="1300" y="1070" as="sourcePoint" />
            <mxPoint x="986" y="1145" as="targetPoint" />
          </mxGeometry>
        </mxCell>
        <mxCell id="sJkyd0CvdRwkuKm5bAiC-30" value="1,n" style="edgeLabel;html=1;align=center;verticalAlign=middle;resizable=0;points=[];" vertex="1" connectable="0" parent="sJkyd0CvdRwkuKm5bAiC-29">
          <mxGeometry x="-0.6777" y="3" relative="1" as="geometry">
            <mxPoint x="-1" as="offset" />
          </mxGeometry>
        </mxCell>
        <mxCell id="sJkyd0CvdRwkuKm5bAiC-31" value="1,1" style="edgeLabel;html=1;align=center;verticalAlign=middle;resizable=0;points=[];" vertex="1" connectable="0" parent="sJkyd0CvdRwkuKm5bAiC-29">
          <mxGeometry x="0.568" y="2" relative="1" as="geometry">
            <mxPoint x="-1" as="offset" />
          </mxGeometry>
        </mxCell>
        <mxCell id="sJkyd0CvdRwkuKm5bAiC-62" value="FK" style="shape=partialRectangle;connectable=0;fillColor=none;top=0;left=0;bottom=0;right=0;fontStyle=1;overflow=hidden;whiteSpace=wrap;html=1;" vertex="1" parent="1">
          <mxGeometry x="960" y="990" width="30" height="30" as="geometry">
            <mxRectangle width="30" height="30" as="alternateBounds" />
          </mxGeometry>
        </mxCell>
        <mxCell id="sJkyd0CvdRwkuKm5bAiC-63" value="FK" style="shape=partialRectangle;connectable=0;fillColor=none;top=0;left=0;bottom=0;right=0;fontStyle=1;overflow=hidden;whiteSpace=wrap;html=1;" vertex="1" parent="1">
          <mxGeometry x="960" y="960" width="30" height="30" as="geometry">
            <mxRectangle width="30" height="30" as="alternateBounds" />
          </mxGeometry>
        </mxCell>
      </root>
    </mxGraphModel>
  </diagram>
</mxfile>
